<?xml version="1.0" standalone="no"?>
<!DOCTYPE svg PUBLIC "-//W3C//DTD SVG 20010904//EN" "http://www.w3.org/TR/2001/REC-SVG-20010904/DTD/svg10.dtd">
<svg version="1.1"
    xmlns="http://www.w3.org/2000/svg"
    width="400"
    height="200"
    viewBox="0 0 400 200">
    <g>
        <path stroke="none" fill="#0473bc" fill-rule="evenodd" d="M352.000 45.682 C 347.568 46.524,343.121 48.114,340.255 49.881 C 339.036 50.632,337.408 51.747,337.361 51.862 C 337.331 51.938,337.229 52.000,337.136 52.000 C 336.462 52.000,330.000 58.457,330.000 59.129 C 330.000 59.226,329.938 59.331,329.862 59.361 C 329.389 59.552,327.060 63.521,326.016 65.917 C 325.616 66.833,325.149 67.901,324.978 68.290 C 324.807 68.678,324.667 69.115,324.667 69.259 C 324.667 69.404,324.595 69.656,324.508 69.819 C 324.366 70.085,323.667 72.522,323.667 72.752 C 323.667 72.803,324.544 72.823,325.617 72.797 L 327.567 72.750 327.804 71.917 C 328.445 69.664,330.048 65.910,331.078 64.250 C 331.404 63.724,332.831 61.536,333.034 61.250 C 334.113 59.729,336.444 57.264,338.167 55.823 C 338.762 55.325,339.287 54.879,339.333 54.833 C 339.379 54.788,339.535 54.675,339.679 54.583 C 339.824 54.492,340.472 54.062,341.120 53.628 C 348.083 48.969,358.512 47.336,366.285 49.687 C 366.854 49.859,367.415 50.000,367.532 50.000 C 367.648 50.000,368.158 50.160,368.663 50.356 C 369.169 50.551,369.733 50.768,369.917 50.838 C 378.245 54.010,384.805 61.162,388.333 70.917 C 390.963 78.186,390.628 88.886,387.548 95.974 C 387.188 96.803,385.699 99.838,385.451 100.249 C 382.530 105.083,378.608 109.106,374.509 111.474 C 373.201 112.230,372.821 112.436,371.956 112.861 C 371.427 113.121,370.940 113.334,370.872 113.334 C 370.805 113.335,370.563 113.432,370.333 113.550 C 365.835 115.869,356.580 116.472,350.417 114.847 C 347.786 114.153,343.473 112.391,342.540 111.628 C 342.424 111.533,342.106 111.335,341.832 111.186 C 338.379 109.314,333.476 104.224,331.137 100.083 C 330.354 98.696,328.667 95.127,328.667 94.857 C 328.667 94.777,328.523 94.345,328.348 93.897 C 328.173 93.450,327.939 92.727,327.827 92.292 L 327.623 91.500 325.645 91.500 C 324.413 91.500,323.667 91.564,323.667 91.670 C 323.667 92.207,324.937 96.321,325.181 96.575 C 325.265 96.662,325.333 96.841,325.333 96.973 C 325.333 97.105,325.493 97.559,325.689 97.982 C 325.884 98.404,326.236 99.162,326.471 99.667 C 334.953 117.908,358.433 124.858,376.485 114.470 C 377.266 114.021,377.946 113.599,377.995 113.535 C 378.043 113.470,378.206 113.342,378.356 113.250 C 379.339 112.648,380.544 111.746,380.617 111.557 C 380.664 111.434,380.771 111.333,380.856 111.333 C 381.027 111.333,382.633 109.847,383.812 108.599 C 384.236 108.149,384.795 107.560,385.054 107.289 C 386.865 105.395,389.430 101.218,390.965 97.667 C 395.642 86.843,394.730 72.084,388.786 62.421 C 386.189 58.199,383.588 55.197,380.264 52.583 C 378.418 51.131,378.434 51.142,375.801 49.613 C 373.332 48.180,369.501 46.696,366.917 46.171 C 366.367 46.060,365.429 45.853,364.833 45.711 C 362.984 45.273,354.256 45.253,352.000 45.682 M6.000 82.250 L 6.000 118.000 7.750 118.000 L 9.500 118.000 9.500 108.348 L 9.500 98.697 16.522 91.723 C 20.384 87.888,24.619 83.681,25.933 82.375 C 28.612 79.712,28.440 79.816,29.002 80.517 C 29.230 80.802,29.494 81.121,29.589 81.226 C 29.683 81.331,30.130 81.904,30.583 82.500 C 31.035 83.096,32.723 85.233,34.333 87.250 C 35.944 89.267,37.629 91.404,38.077 92.000 C 38.526 92.596,39.011 93.211,39.155 93.367 C 39.471 93.710,39.538 93.793,40.583 95.167 C 41.037 95.763,42.874 98.087,44.666 100.333 C 46.457 102.579,48.178 104.773,48.490 105.208 C 48.802 105.644,49.119 106.000,49.195 106.000 C 49.271 106.000,49.333 106.096,49.333 106.213 C 49.333 106.330,49.465 106.546,49.625 106.693 C 49.785 106.840,50.104 107.211,50.333 107.517 C 50.734 108.054,55.823 114.478,56.525 115.333 C 56.713 115.563,57.251 116.256,57.721 116.875 L 58.575 118.000 60.954 118.000 C 63.382 118.000,63.595 117.937,63.030 117.381 C 62.863 117.218,62.362 116.596,61.917 116.000 C 61.472 115.404,60.989 114.793,60.845 114.641 C 60.701 114.490,60.423 114.153,60.227 113.891 C 59.136 112.438,49.274 100.008,48.280 98.833 C 48.086 98.604,47.437 97.777,46.839 96.995 C 46.240 96.213,45.655 95.463,45.539 95.328 C 45.070 94.785,44.651 94.258,43.813 93.156 C 43.330 92.520,42.874 92.000,42.801 92.000 C 42.727 92.000,42.667 91.904,42.667 91.787 C 42.667 91.670,42.535 91.454,42.375 91.307 C 42.215 91.160,41.896 90.789,41.667 90.481 C 41.438 90.174,38.978 87.076,36.202 83.598 L 31.154 77.273 34.619 73.859 C 47.914 60.760,62.167 46.636,62.167 46.559 C 62.167 46.527,61.018 46.500,59.613 46.500 L 57.060 46.500 33.280 70.267 L 9.500 94.034 9.500 70.267 L 9.500 46.500 7.750 46.500 L 6.000 46.500 6.000 82.250 M78.667 82.250 L 78.667 118.000 80.583 118.000 L 82.500 118.000 82.500 82.250 L 82.500 46.500 80.583 46.500 L 78.667 46.500 78.667 82.250 M96.333 48.167 L 96.333 49.833 109.000 49.833 L 121.667 49.833 121.667 83.917 L 121.667 118.000 123.500 118.000 L 125.333 118.000 125.333 83.917 L 125.333 49.833 138.083 49.833 L 150.833 49.833 150.833 48.167 L 150.833 46.500 123.583 46.500 L 96.333 46.500 96.333 48.167 M244.833 59.655 L 244.833 72.833 246.750 72.833 L 248.667 72.833 248.667 61.315 L 248.667 49.798 260.542 49.869 C 273.455 49.946,273.694 49.962,277.917 51.034 C 289.082 53.869,297.183 61.298,300.869 72.083 L 301.097 72.750 303.145 72.797 C 304.271 72.823,305.154 72.780,305.106 72.703 C 305.058 72.625,304.871 72.041,304.690 71.406 C 304.032 69.090,302.651 65.930,301.417 63.917 C 301.192 63.550,300.883 63.025,300.729 62.750 C 299.782 61.056,296.485 57.277,294.404 55.500 C 293.294 54.552,291.662 53.333,291.504 53.333 C 291.410 53.333,291.333 53.272,291.333 53.197 C 291.333 53.123,291.024 52.879,290.646 52.656 C 290.269 52.433,289.687 52.083,289.355 51.879 C 289.022 51.675,288.037 51.158,287.167 50.731 C 286.296 50.303,285.393 49.857,285.160 49.738 C 283.583 48.935,279.155 47.645,275.667 46.973 C 273.797 46.613,273.393 46.602,259.292 46.540 L 244.833 46.476 244.833 59.655 M244.833 104.756 L 244.833 118.012 259.125 117.957 C 274.510 117.898,273.912 117.929,278.167 116.983 C 282.706 115.974,287.357 114.017,290.906 111.621 C 291.462 111.247,291.942 110.878,291.972 110.803 C 292.003 110.728,292.102 110.667,292.194 110.667 C 293.167 110.667,298.614 104.980,300.644 101.844 C 301.761 100.120,302.970 97.812,303.575 96.249 C 304.446 94.001,304.537 93.743,304.756 92.917 C 304.877 92.458,305.027 91.952,305.089 91.792 C 305.193 91.524,305.039 91.500,303.205 91.500 L 301.208 91.500 300.821 92.708 C 300.608 93.373,300.337 94.104,300.218 94.333 C 300.099 94.563,300.002 94.825,300.001 94.917 C 300.000 95.070,298.704 97.694,298.149 98.667 C 294.994 104.195,289.409 109.119,283.500 111.581 C 276.844 114.355,275.431 114.541,260.458 114.621 L 248.667 114.683 248.667 103.092 L 248.667 91.500 246.750 91.500 L 244.833 91.500 244.833 104.756"/>
        <path stroke="none" fill="#fb4c14" fill-rule="evenodd" d="M184.667 45.603 C 183.979 45.735,183.004 45.913,182.500 45.998 C 181.494 46.169,179.267 46.791,177.833 47.302 C 175.568 48.110,171.535 50.125,171.361 50.535 C 171.331 50.608,171.232 50.667,171.141 50.667 C 170.980 50.667,169.602 51.562,169.229 51.909 C 169.125 52.005,168.874 52.196,168.670 52.333 C 167.145 53.360,164.087 56.395,162.537 58.420 C 161.278 60.064,160.670 60.940,160.668 61.111 C 160.667 61.218,160.610 61.331,160.542 61.361 C 160.178 61.523,157.874 65.940,157.253 67.667 C 155.240 73.259,154.667 76.493,154.667 82.250 C 154.667 87.161,155.169 90.657,156.438 94.583 C 156.950 96.166,158.551 99.970,158.999 100.667 C 159.146 100.896,159.356 101.271,159.465 101.500 C 159.697 101.985,159.763 102.091,161.066 104.082 C 163.738 108.164,168.560 112.682,172.417 114.718 C 181.104 119.305,189.857 120.453,199.167 118.229 C 204.448 116.967,210.181 114.000,213.697 110.709 C 217.664 106.995,219.787 104.191,221.933 99.833 C 222.362 98.962,222.810 98.059,222.929 97.827 C 224.166 95.398,225.641 89.292,225.946 85.339 L 226.049 84.000 288.878 84.000 C 346.298 84.000,351.689 84.023,351.487 84.265 C 351.366 84.411,349.844 85.952,348.104 87.690 L 344.941 90.850 346.175 92.092 C 346.853 92.775,347.496 93.333,347.602 93.333 C 347.709 93.333,349.521 91.608,351.628 89.500 L 355.459 85.666 359.290 89.500 C 361.397 91.608,363.227 93.333,363.356 93.333 C 363.486 93.333,364.151 92.770,364.835 92.082 L 366.078 90.831 362.665 87.415 L 359.253 84.000 362.627 84.000 L 366.000 84.000 366.000 82.167 L 366.000 80.333 296.024 80.333 L 226.048 80.333 225.955 79.125 C 225.530 73.600,223.659 67.370,221.086 62.917 C 219.721 60.552,219.188 59.789,217.243 57.417 C 215.701 55.536,213.286 53.195,211.999 52.333 C 211.794 52.196,211.541 52.004,211.438 51.908 C 210.078 50.635,205.588 48.276,202.417 47.168 C 197.517 45.456,189.239 44.726,184.667 45.603 M194.000 48.822 C 197.396 49.393,198.962 49.766,201.083 50.510 C 202.169 50.891,205.660 52.546,206.333 52.999 C 206.563 53.153,207.237 53.605,207.833 54.003 C 212.180 56.908,215.969 61.326,218.478 66.417 C 219.435 68.359,220.667 71.402,220.667 71.825 C 220.667 71.954,220.814 72.553,220.994 73.155 C 222.180 77.126,222.514 84.543,221.688 88.583 C 221.189 91.028,220.704 92.906,220.317 93.897 C 220.143 94.345,220.000 94.839,220.000 94.994 C 220.000 95.150,219.952 95.326,219.894 95.384 C 219.835 95.442,219.517 96.113,219.185 96.874 C 218.854 97.635,218.224 98.893,217.785 99.670 C 216.610 101.749,216.164 102.412,214.650 104.333 C 206.162 115.107,191.920 118.651,178.167 113.413 C 173.989 111.821,169.284 108.247,166.043 104.203 C 164.889 102.763,163.333 100.595,163.333 100.427 C 163.333 100.393,163.076 99.911,162.762 99.355 C 158.103 91.112,157.092 78.983,160.349 70.413 C 160.524 69.953,160.667 69.512,160.667 69.433 C 160.667 68.824,162.900 64.454,164.253 62.417 C 165.080 61.171,165.055 61.203,166.491 59.496 C 167.694 58.066,168.847 56.919,170.167 55.839 C 170.762 55.351,171.287 54.907,171.333 54.851 C 171.379 54.796,171.540 54.675,171.691 54.583 C 171.842 54.492,172.315 54.173,172.741 53.875 C 173.168 53.577,173.547 53.333,173.584 53.333 C 173.621 53.333,173.901 53.165,174.205 52.958 C 175.670 51.965,178.924 50.578,181.750 49.742 C 184.830 48.832,191.203 48.353,194.000 48.822 M135.500 143.313 C 130.986 144.308,129.695 150.763,133.461 153.506 C 137.307 156.305,142.798 153.876,143.124 149.230 C 143.408 145.195,139.769 142.372,135.500 143.313 M177.765 143.278 C 174.662 143.808,172.645 147.823,173.856 151.060 C 174.843 153.699,178.464 155.388,181.251 154.509 C 182.293 154.181,182.940 153.893,183.625 153.452 L 184.333 152.996 184.333 150.415 L 184.333 147.833 181.750 147.833 L 179.167 147.833 179.167 149.083 L 179.167 150.333 180.250 150.333 L 181.333 150.333 181.333 150.842 C 181.333 152.376,178.115 151.985,177.189 150.338 C 175.721 147.725,178.378 145.117,181.102 146.498 C 182.334 147.123,182.126 147.185,183.164 145.889 L 184.054 144.778 183.569 144.387 C 182.345 143.401,179.843 142.922,177.765 143.278 M241.656 143.384 C 239.318 144.046,237.670 146.299,237.670 148.833 C 237.671 149.918,238.039 151.417,238.406 151.822 C 238.549 151.980,238.667 152.172,238.667 152.248 C 238.667 152.324,239.012 152.703,239.433 153.090 C 242.873 156.248,248.575 154.494,249.432 150.015 C 250.286 145.551,246.226 142.089,241.656 143.384 M293.417 143.313 C 288.252 144.682,287.893 152.298,292.900 154.292 C 294.998 155.127,297.537 154.628,299.175 153.059 C 300.198 152.079,300.221 152.210,298.849 151.190 C 297.491 150.180,297.619 150.204,296.949 150.836 C 294.714 152.943,291.512 150.183,293.040 147.465 C 293.894 145.946,295.327 145.672,296.748 146.757 C 297.677 147.466,297.477 147.495,298.756 146.470 C 300.016 145.460,300.026 145.420,299.208 144.631 C 297.931 143.399,295.326 142.806,293.417 143.313 M318.000 143.269 C 317.348 143.394,316.667 143.693,316.667 143.854 C 316.667 143.934,316.564 144.000,316.439 144.000 C 315.995 144.000,315.280 145.300,315.201 146.251 C 315.006 148.609,315.759 149.362,319.316 150.358 C 320.798 150.773,321.225 151.111,320.845 151.569 C 320.385 152.123,318.327 151.792,317.141 150.972 C 316.458 150.500,316.142 150.611,315.364 151.597 C 314.502 152.688,314.520 152.925,315.500 153.498 C 320.168 156.224,325.697 153.748,324.063 149.664 C 323.650 148.632,321.317 147.333,319.876 147.333 C 319.193 147.333,318.473 146.860,318.531 146.449 C 318.622 145.814,320.251 145.840,321.462 146.496 L 322.409 147.009 322.708 146.629 C 323.477 145.656,324.012 144.771,323.942 144.588 C 323.620 143.749,319.857 142.914,318.000 143.269 M74.000 148.917 L 74.000 154.500 75.667 154.500 L 77.333 154.500 77.333 153.008 C 77.333 151.631,77.366 151.482,77.758 151.091 C 78.299 150.549,78.213 150.511,78.944 151.625 C 79.289 152.152,79.614 152.621,79.666 152.667 C 79.718 152.712,80.010 153.144,80.315 153.625 L 80.868 154.500 82.767 154.500 C 84.130 154.500,84.667 154.444,84.667 154.301 C 84.667 154.132,83.929 152.926,83.667 152.667 C 83.587 152.588,82.440 150.914,82.083 150.356 C 81.992 150.212,81.635 149.702,81.292 149.221 C 80.516 148.137,80.518 148.089,81.380 147.149 C 81.767 146.727,82.496 145.913,83.000 145.341 C 83.504 144.768,84.085 144.116,84.292 143.891 C 84.498 143.667,84.667 143.449,84.667 143.408 C 84.667 143.367,83.785 143.335,82.708 143.337 L 80.750 143.340 79.750 144.527 C 79.200 145.180,78.675 145.797,78.583 145.899 C 78.492 146.000,78.173 146.367,77.875 146.714 L 77.333 147.345 77.333 145.339 L 77.333 143.333 75.667 143.333 L 74.000 143.333 74.000 148.917 M87.333 148.917 L 87.333 154.500 91.917 154.500 L 96.500 154.500 96.500 153.083 L 96.500 151.667 93.583 151.667 L 90.667 151.667 90.667 150.917 L 90.667 150.167 93.333 150.167 L 96.000 150.167 96.000 148.833 L 96.000 147.500 93.333 147.500 L 90.667 147.500 90.667 146.750 L 90.667 146.000 93.583 146.000 L 96.500 146.000 96.500 144.667 L 96.500 143.333 91.917 143.333 L 87.333 143.333 87.333 148.917 M99.000 143.411 C 99.000 143.474,99.706 144.660,100.750 146.351 C 100.842 146.500,101.086 146.913,101.293 147.269 C 101.501 147.625,101.763 148.062,101.877 148.240 C 103.241 150.377,103.167 150.138,103.167 152.409 L 103.167 154.500 104.833 154.500 L 106.500 154.500 106.500 152.367 L 106.500 150.235 107.251 148.992 C 107.664 148.309,108.075 147.637,108.166 147.500 C 108.256 147.362,108.483 146.987,108.670 146.667 C 108.856 146.346,109.155 145.858,109.333 145.583 C 109.511 145.308,109.808 144.807,109.993 144.470 C 110.178 144.132,110.405 143.809,110.498 143.751 C 110.983 143.452,110.498 143.333,108.784 143.333 L 106.902 143.333 106.350 144.375 C 104.866 147.174,104.839 147.197,104.278 146.124 C 102.714 143.137,102.957 143.333,100.829 143.333 C 99.823 143.333,99.000 143.368,99.000 143.411 M119.000 144.750 L 119.000 146.167 120.583 146.167 L 122.167 146.167 122.167 150.333 L 122.167 154.500 123.833 154.500 L 125.500 154.500 125.500 150.333 L 125.500 146.167 127.083 146.167 L 128.667 146.167 128.667 144.750 L 128.667 143.333 123.833 143.333 L 119.000 143.333 119.000 144.750 M152.706 148.875 L 152.750 154.417 155.583 154.417 C 161.067 154.417,163.330 152.785,163.330 148.833 C 163.330 144.946,161.080 143.333,155.655 143.333 L 152.662 143.333 152.706 148.875 M166.742 143.543 C 166.698 143.658,166.682 146.152,166.706 149.085 L 166.750 154.417 168.375 154.464 L 170.000 154.512 170.000 148.923 L 170.000 143.333 168.411 143.333 C 167.289 143.333,166.799 143.395,166.742 143.543 M188.000 148.917 L 188.000 154.500 189.667 154.500 L 191.333 154.500 191.333 148.917 L 191.333 143.333 189.667 143.333 L 188.000 143.333 188.000 148.917 M194.333 144.750 L 194.333 146.167 195.917 146.167 L 197.500 146.167 197.500 150.333 L 197.500 154.500 199.167 154.500 L 200.833 154.500 200.833 150.333 L 200.833 146.167 202.417 146.167 L 204.000 146.167 204.000 144.750 L 204.000 143.333 199.167 143.333 L 194.333 143.333 194.333 144.750 M209.336 143.542 C 209.337 143.656,209.027 144.462,208.647 145.333 C 208.267 146.204,207.862 147.142,207.748 147.417 C 207.332 148.417,205.361 153.109,205.067 153.797 C 204.938 154.098,204.833 154.380,204.833 154.422 C 204.833 154.465,205.612 154.500,206.563 154.500 L 208.293 154.500 208.480 154.000 C 208.583 153.725,208.752 153.273,208.856 152.995 L 209.045 152.490 211.056 152.537 L 213.067 152.583 213.417 153.500 L 213.766 154.417 215.550 154.464 C 216.531 154.490,217.334 154.452,217.336 154.381 C 217.338 154.265,216.533 152.340,215.678 150.417 C 215.515 150.050,215.228 149.375,215.040 148.917 C 214.604 147.855,213.213 144.585,212.894 143.875 L 212.651 143.333 210.992 143.333 C 209.775 143.333,209.334 143.389,209.336 143.542 M220.000 148.917 L 220.000 154.500 224.333 154.500 L 228.667 154.500 228.667 153.000 L 228.667 151.500 226.000 151.500 L 223.333 151.500 223.333 147.417 L 223.333 143.333 221.667 143.333 L 220.000 143.333 220.000 148.917 M253.000 148.922 L 253.000 154.528 256.625 154.456 C 261.350 154.362,262.237 154.038,262.768 152.213 C 263.204 150.712,262.845 149.725,261.525 148.803 L 261.134 148.529 261.558 148.251 C 262.961 147.332,262.728 144.931,261.134 143.875 L 260.442 143.417 256.721 143.366 L 253.000 143.316 253.000 148.922 M270.167 147.167 C 270.167 150.778,270.147 151.019,269.833 151.333 C 269.312 151.855,268.035 151.600,267.775 150.923 C 267.618 150.513,267.413 150.610,266.343 151.601 C 265.174 152.684,265.173 152.687,265.838 153.338 C 267.709 155.167,271.154 155.076,272.673 153.159 C 273.369 152.280,273.498 151.310,273.499 146.958 L 273.500 143.333 271.833 143.333 L 270.167 143.333 270.167 147.167 M277.333 148.917 L 277.333 154.500 281.833 154.500 L 286.333 154.500 286.333 153.083 L 286.333 151.667 283.417 151.667 L 280.500 151.667 280.500 150.917 L 280.500 150.167 283.083 150.167 L 285.667 150.167 285.667 148.833 L 285.667 147.500 283.083 147.500 L 280.500 147.500 280.500 146.750 L 280.500 146.000 283.417 146.000 L 286.333 146.000 286.333 144.667 L 286.333 143.333 281.833 143.333 L 277.333 143.333 277.333 148.917 M302.667 144.750 L 302.667 146.167 304.250 146.167 L 305.833 146.167 305.833 150.339 L 305.833 154.512 307.458 154.464 L 309.083 154.417 309.128 150.292 L 309.172 146.167 310.753 146.167 L 312.333 146.167 312.333 144.750 L 312.333 143.333 307.500 143.333 L 302.667 143.333 302.667 144.750 M138.158 146.329 C 141.307 147.935,139.450 152.711,136.184 151.404 C 134.144 150.588,134.076 147.374,136.077 146.349 C 136.920 145.918,137.344 145.913,138.158 146.329 M244.582 146.333 C 247.665 147.825,245.794 152.750,242.645 151.431 C 240.557 150.556,240.464 147.457,242.493 146.384 C 243.382 145.914,243.701 145.906,244.582 146.333 M259.000 146.333 C 259.762 147.095,258.971 147.667,257.156 147.667 L 256.167 147.667 256.167 146.833 L 256.167 146.000 257.417 146.000 C 258.444 146.000,258.726 146.059,259.000 146.333 M158.617 146.609 C 161.172 147.861,160.239 151.191,157.264 151.442 L 156.000 151.549 156.000 148.835 L 156.000 146.120 156.995 146.211 C 157.542 146.260,158.272 146.439,158.617 146.609 M211.854 149.242 C 212.308 149.733,212.008 150.000,211.000 150.000 C 210.450 150.000,210.000 149.965,210.000 149.921 C 210.000 149.878,210.144 149.521,210.320 149.129 C 210.497 148.737,210.734 148.165,210.848 147.857 L 211.055 147.298 211.381 148.191 C 211.561 148.682,211.773 149.155,211.854 149.242 M259.333 150.333 C 260.151 151.151,259.458 151.729,257.566 151.809 L 256.167 151.868 256.167 150.934 L 256.167 150.000 257.583 150.000 C 258.778 150.000,259.052 150.052,259.333 150.333"/>
    </g>
</svg>
