<svg id="svg" version="1.1" xmlns="http://www.w3.org/2000/svg" xmlns:xlink="http://www.w3.org/1999/xlink" width="400" height="400" viewBox="0, 0, 400,400">
    <g id="svgg">
        <path id="path0" d="M177.000 50.000 C 176.864 50.220,175.336 50.400,173.605 50.400 C 171.340 50.400,170.289 50.568,169.857 51.000 C 169.456 51.402,168.454 51.600,166.829 51.600 C 165.476 51.600,164.400 51.777,164.400 52.000 C 164.400 52.220,163.522 52.400,162.449 52.400 C 161.203 52.400,160.318 52.617,160.000 53.000 C 159.714 53.345,158.842 53.600,157.951 53.600 C 157.098 53.600,156.400 53.780,156.400 54.000 C 156.400 54.220,155.584 54.400,154.587 54.400 C 153.345 54.400,152.702 54.589,152.545 55.000 C 152.403 55.370,151.795 55.600,150.957 55.600 C 150.211 55.600,149.600 55.780,149.600 56.000 C 149.600 56.220,148.964 56.400,148.187 56.400 C 147.301 56.400,146.689 56.623,146.545 57.000 C 146.403 57.370,145.795 57.600,144.957 57.600 C 144.211 57.600,143.600 57.780,143.600 58.000 C 143.600 58.220,143.172 58.400,142.649 58.400 C 142.126 58.400,141.474 58.670,141.200 59.000 C 140.926 59.330,140.184 59.600,139.551 59.600 C 138.918 59.600,138.400 59.780,138.400 60.000 C 138.400 60.220,137.950 60.400,137.400 60.400 C 136.778 60.400,136.400 60.627,136.400 61.000 C 136.400 61.397,136.003 61.600,135.224 61.600 C 134.577 61.600,133.936 61.780,133.800 62.000 C 133.664 62.220,133.198 62.400,132.764 62.400 C 132.330 62.400,131.871 62.670,131.745 63.000 C 131.618 63.330,131.084 63.600,130.557 63.600 C 130.031 63.600,129.600 63.780,129.600 64.000 C 129.600 64.220,129.150 64.400,128.600 64.400 C 127.978 64.400,127.600 64.627,127.600 65.000 C 127.600 65.373,127.222 65.600,126.600 65.600 C 126.050 65.600,125.600 65.760,125.600 65.957 C 125.600 66.153,125.150 66.426,124.600 66.564 C 124.050 66.702,123.600 66.992,123.600 67.208 C 123.600 67.423,123.330 67.600,123.000 67.600 C 122.670 67.600,122.400 67.780,122.400 68.000 C 122.400 68.220,122.034 68.400,121.587 68.400 C 121.141 68.400,120.671 68.670,120.545 69.000 C 120.418 69.330,120.019 69.606,119.657 69.613 C 118.828 69.629,117.600 70.543,117.600 71.144 C 117.600 71.395,117.150 71.600,116.600 71.600 C 116.050 71.600,115.600 71.780,115.600 72.000 C 115.600 72.220,115.349 72.400,115.043 72.400 C 114.736 72.400,114.382 72.670,114.255 73.000 C 114.129 73.330,113.737 73.600,113.384 73.600 C 112.655 73.600,111.600 74.529,111.600 75.171 C 111.600 75.407,111.150 75.600,110.600 75.600 C 110.050 75.600,109.600 75.780,109.600 76.000 C 109.600 76.220,109.330 76.400,109.000 76.400 C 108.670 76.400,108.400 76.670,108.400 77.000 C 108.400 77.333,108.044 77.600,107.600 77.600 C 107.160 77.600,106.800 77.780,106.800 78.000 C 106.800 78.220,106.530 78.400,106.200 78.400 C 105.870 78.400,105.600 78.670,105.600 79.000 C 105.600 79.330,105.407 79.600,105.171 79.600 C 104.618 79.600,103.600 80.618,103.600 81.171 C 103.600 81.407,103.216 81.600,102.747 81.600 C 102.278 81.600,101.300 82.230,100.574 83.000 C 99.848 83.770,99.062 84.400,98.827 84.400 C 98.592 84.400,98.400 84.593,98.400 84.829 C 98.400 85.382,97.382 86.400,96.829 86.400 C 96.593 86.400,96.400 86.631,96.400 86.914 C 96.400 87.196,95.905 87.720,95.299 88.078 C 94.005 88.842,88.400 94.387,88.400 94.903 C 88.400 95.396,87.346 96.400,86.829 96.400 C 86.593 96.400,86.400 96.593,86.400 96.829 C 86.400 97.382,85.382 98.400,84.829 98.400 C 84.593 98.400,84.400 98.592,84.400 98.827 C 84.400 99.062,83.770 99.848,83.000 100.574 C 82.230 101.300,81.600 102.278,81.600 102.747 C 81.600 103.216,81.407 103.600,81.171 103.600 C 80.618 103.600,79.600 104.618,79.600 105.171 C 79.600 105.407,79.330 105.600,79.000 105.600 C 78.670 105.600,78.394 105.915,78.387 106.300 C 78.372 107.165,77.471 108.400,76.856 108.400 C 76.605 108.400,76.400 108.670,76.400 109.000 C 76.400 109.330,76.220 109.600,76.000 109.600 C 75.780 109.600,75.600 110.050,75.600 110.600 C 75.600 111.150,75.407 111.600,75.171 111.600 C 74.466 111.600,73.600 112.686,73.600 113.571 C 73.600 114.041,73.340 114.400,73.000 114.400 C 72.670 114.400,72.400 114.670,72.400 115.000 C 72.400 115.330,72.220 115.600,72.000 115.600 C 71.780 115.600,71.600 116.050,71.600 116.600 C 71.600 117.150,71.395 117.600,71.144 117.600 C 70.543 117.600,69.629 118.828,69.613 119.657 C 69.606 120.019,69.330 120.418,69.000 120.545 C 68.670 120.671,68.400 121.141,68.400 121.587 C 68.400 122.034,68.220 122.400,68.000 122.400 C 67.780 122.400,67.600 122.751,67.600 123.180 C 67.600 123.609,67.375 124.104,67.100 124.280 C 66.461 124.689,65.600 126.222,65.600 126.952 C 65.600 127.261,65.330 127.618,65.000 127.745 C 64.670 127.871,64.400 128.341,64.400 128.787 C 64.400 129.234,64.220 129.600,64.000 129.600 C 63.780 129.600,63.600 129.973,63.600 130.429 C 63.600 130.884,63.330 131.527,63.000 131.857 C 62.670 132.187,62.400 132.794,62.400 133.205 C 62.400 133.616,62.220 134.064,62.000 134.200 C 61.780 134.336,61.600 134.867,61.600 135.381 C 61.600 135.894,61.330 136.418,61.000 136.545 C 60.670 136.671,60.400 137.130,60.400 137.564 C 60.400 137.998,60.220 138.464,60.000 138.600 C 59.780 138.736,59.600 139.467,59.600 140.224 C 59.600 141.180,59.417 141.600,59.000 141.600 C 58.627 141.600,58.400 141.978,58.400 142.600 C 58.400 143.150,58.220 143.600,58.000 143.600 C 57.780 143.600,57.600 144.211,57.600 144.957 C 57.600 145.795,57.370 146.403,57.000 146.545 C 56.623 146.689,56.400 147.301,56.400 148.187 C 56.400 148.964,56.220 149.600,56.000 149.600 C 55.780 149.600,55.600 150.208,55.600 150.951 C 55.600 151.694,55.330 152.526,55.000 152.800 C 54.655 153.086,54.400 153.958,54.400 154.849 C 54.400 155.702,54.220 156.400,54.000 156.400 C 53.780 156.400,53.600 157.281,53.600 158.357 C 53.600 159.728,53.420 160.383,53.000 160.545 C 52.577 160.707,52.400 161.368,52.400 162.787 C 52.400 163.894,52.220 164.800,52.000 164.800 C 51.772 164.800,51.600 165.986,51.600 167.557 C 51.600 169.519,51.442 170.375,51.053 170.524 C 50.660 170.675,50.487 171.668,50.437 174.067 C 50.399 175.900,50.195 177.460,49.984 177.533 C 49.448 177.719,49.464 212.400,50.000 212.400 C 50.235 212.400,50.400 213.804,50.400 215.813 C 50.400 218.477,50.532 219.276,51.000 219.455 C 51.452 219.629,51.600 220.358,51.600 222.419 C 51.600 223.923,51.780 225.264,52.000 225.400 C 52.220 225.536,52.400 226.452,52.400 227.436 C 52.400 228.657,52.590 229.298,53.000 229.455 C 53.420 229.617,53.600 230.272,53.600 231.643 C 53.600 232.719,53.780 233.600,54.000 233.600 C 54.220 233.600,54.400 234.298,54.400 235.151 C 54.400 236.042,54.655 236.914,55.000 237.200 C 55.330 237.474,55.600 238.306,55.600 239.049 C 55.600 239.792,55.780 240.400,56.000 240.400 C 56.220 240.400,56.400 241.036,56.400 241.813 C 56.400 242.699,56.623 243.311,57.000 243.455 C 57.370 243.597,57.600 244.205,57.600 245.043 C 57.600 245.789,57.780 246.400,58.000 246.400 C 58.220 246.400,58.400 246.850,58.400 247.400 C 58.400 248.022,58.627 248.400,59.000 248.400 C 59.433 248.400,59.600 248.844,59.600 250.000 C 59.600 250.880,59.780 251.600,60.000 251.600 C 60.220 251.600,60.400 251.966,60.400 252.413 C 60.400 252.859,60.670 253.329,61.000 253.455 C 61.330 253.582,61.600 254.106,61.600 254.619 C 61.600 255.133,61.780 255.664,62.000 255.800 C 62.220 255.936,62.400 256.384,62.400 256.795 C 62.400 257.206,62.670 257.813,63.000 258.143 C 63.330 258.473,63.600 259.116,63.600 259.571 C 63.600 260.027,63.760 260.400,63.957 260.400 C 64.153 260.400,64.426 260.850,64.564 261.400 C 64.702 261.950,64.992 262.400,65.208 262.400 C 65.423 262.400,65.600 262.672,65.600 263.005 C 65.600 263.772,66.445 265.301,67.100 265.720 C 67.375 265.896,67.600 266.391,67.600 266.820 C 67.600 267.249,67.780 267.600,68.000 267.600 C 68.220 267.600,68.400 267.966,68.400 268.413 C 68.400 268.859,68.670 269.329,69.000 269.455 C 69.330 269.582,69.606 269.981,69.613 270.343 C 69.629 271.172,70.543 272.400,71.144 272.400 C 71.395 272.400,71.600 272.850,71.600 273.400 C 71.600 273.950,71.780 274.400,72.000 274.400 C 72.220 274.400,72.400 274.670,72.400 275.000 C 72.400 275.330,72.670 275.600,73.000 275.600 C 73.340 275.600,73.600 275.959,73.600 276.429 C 73.600 277.314,74.466 278.400,75.171 278.400 C 75.407 278.400,75.600 278.850,75.600 279.400 C 75.600 279.950,75.780 280.400,76.000 280.400 C 76.220 280.400,76.400 280.670,76.400 281.000 C 76.400 281.330,76.636 281.600,76.925 281.600 C 77.214 281.600,77.698 282.230,78.000 283.000 C 78.302 283.770,78.786 284.400,79.075 284.400 C 79.364 284.400,79.600 284.593,79.600 284.829 C 79.600 285.382,80.618 286.400,81.171 286.400 C 81.407 286.400,81.600 286.784,81.600 287.253 C 81.600 287.722,82.230 288.700,83.000 289.426 C 83.770 290.152,84.400 290.938,84.400 291.173 C 84.400 291.408,84.593 291.600,84.829 291.600 C 85.382 291.600,86.400 292.618,86.400 293.171 C 86.400 293.407,86.631 293.600,86.914 293.600 C 87.196 293.600,87.728 294.095,88.095 294.700 C 89.092 296.343,94.406 301.600,95.070 301.600 C 95.430 301.600,96.400 302.746,96.400 303.171 C 96.400 303.407,96.593 303.600,96.829 303.600 C 97.382 303.600,98.400 304.618,98.400 305.171 C 98.400 305.407,98.592 305.600,98.827 305.600 C 99.062 305.600,99.848 306.230,100.574 307.000 C 101.300 307.770,102.278 308.400,102.747 308.400 C 103.216 308.400,103.600 308.593,103.600 308.829 C 103.600 309.382,104.618 310.400,105.171 310.400 C 105.407 310.400,105.600 310.670,105.600 311.000 C 105.600 311.330,105.870 311.600,106.200 311.600 C 106.530 311.600,106.800 311.780,106.800 312.000 C 106.800 312.220,107.160 312.400,107.600 312.400 C 108.044 312.400,108.400 312.667,108.400 313.000 C 108.400 313.330,108.670 313.600,109.000 313.600 C 109.330 313.600,109.600 313.780,109.600 314.000 C 109.600 314.220,109.909 314.400,110.287 314.400 C 110.665 314.400,111.343 314.805,111.793 315.300 C 112.714 316.313,113.861 317.109,114.900 317.458 C 115.285 317.588,115.600 317.852,115.600 318.047 C 115.600 318.241,116.050 318.400,116.600 318.400 C 117.150 318.400,117.600 318.605,117.600 318.856 C 117.600 319.457,118.828 320.371,119.657 320.387 C 120.019 320.394,120.418 320.670,120.545 321.000 C 120.671 321.330,121.141 321.600,121.587 321.600 C 122.034 321.600,122.400 321.780,122.400 322.000 C 122.400 322.220,122.670 322.400,123.000 322.400 C 123.330 322.400,123.600 322.577,123.600 322.792 C 123.600 323.008,124.050 323.298,124.600 323.436 C 125.150 323.574,125.600 323.847,125.600 324.043 C 125.600 324.240,126.050 324.400,126.600 324.400 C 127.222 324.400,127.600 324.627,127.600 325.000 C 127.600 325.373,127.978 325.600,128.600 325.600 C 129.150 325.600,129.600 325.780,129.600 326.000 C 129.600 326.220,130.031 326.400,130.557 326.400 C 131.084 326.400,131.618 326.670,131.745 327.000 C 131.871 327.330,132.305 327.600,132.707 327.600 C 133.110 327.600,133.656 327.816,133.920 328.080 C 134.293 328.453,134.400 328.453,134.400 328.080 C 134.400 327.816,134.220 327.600,134.000 327.600 C 133.780 327.600,133.600 327.330,133.600 327.000 C 133.600 326.670,133.324 326.400,132.987 326.400 C 132.651 326.400,132.271 326.130,132.145 325.800 C 132.018 325.470,131.679 325.200,131.391 325.200 C 131.102 325.200,130.807 325.057,130.733 324.882 C 130.660 324.707,128.170 322.738,125.200 320.506 C 122.230 318.274,119.349 316.032,118.797 315.524 C 118.245 315.016,117.075 313.992,116.197 313.248 C 110.951 308.808,101.295 298.612,97.910 293.940 C 97.227 292.997,96.326 291.860,95.907 291.413 C 95.134 290.588,89.357 282.073,88.572 280.602 C 88.185 279.877,86.996 277.870,85.719 275.785 C 85.247 275.014,84.146 272.964,82.505 269.800 C 81.692 268.231,79.149 262.774,78.312 260.800 C 77.418 258.693,76.870 257.364,76.498 256.400 C 76.285 255.850,75.816 254.719,75.455 253.886 C 75.095 253.054,74.800 252.107,74.800 251.781 C 74.800 251.455,74.638 250.877,74.440 250.495 C 74.242 250.113,73.767 248.720,73.384 247.400 C 73.001 246.080,72.557 244.640,72.397 244.200 C 72.032 243.193,71.203 239.926,70.747 237.700 C 70.154 234.798,69.712 232.679,69.267 230.600 C 66.109 215.859,66.184 192.387,69.441 176.400 C 69.777 174.750,70.220 172.847,70.426 172.172 C 70.632 171.496,70.800 170.583,70.800 170.143 C 70.800 169.703,71.049 168.545,71.353 167.571 C 71.657 166.597,72.131 164.990,72.407 164.000 C 73.336 160.660,76.446 151.545,77.389 149.400 C 77.679 148.740,78.096 147.750,78.316 147.200 C 78.791 146.011,85.062 133.265,85.597 132.400 C 85.801 132.070,87.181 129.820,88.663 127.400 C 90.145 124.980,91.476 122.910,91.619 122.800 C 91.763 122.690,92.385 121.794,93.003 120.809 C 93.620 119.824,94.367 118.776,94.663 118.480 C 94.958 118.185,95.200 117.810,95.200 117.647 C 95.200 117.484,95.517 117.002,95.904 116.575 C 96.291 116.149,97.233 114.990,97.998 114.000 C 98.763 113.010,99.571 111.995,99.794 111.745 C 100.017 111.495,101.000 110.325,101.979 109.145 C 106.002 104.293,117.883 92.921,122.073 89.912 C 123.023 89.230,123.890 88.549,124.000 88.400 C 124.303 87.988,131.558 82.800,131.831 82.800 C 131.962 82.800,132.819 82.287,133.735 81.659 C 135.678 80.328,137.473 79.192,138.600 78.579 C 139.040 78.339,140.480 77.537,141.800 76.796 C 147.016 73.869,154.044 70.596,159.800 68.414 C 160.240 68.247,161.281 67.816,162.114 67.455 C 162.946 67.095,163.970 66.800,164.390 66.800 C 164.810 66.800,165.264 66.620,165.400 66.400 C 165.536 66.180,165.990 66.000,166.410 66.000 C 166.830 66.000,167.764 65.747,168.486 65.438 C 169.209 65.130,170.610 64.665,171.600 64.405 C 172.590 64.146,174.300 63.686,175.400 63.383 C 176.500 63.081,178.210 62.661,179.200 62.451 C 184.813 61.259,187.287 60.790,189.800 60.441 C 191.340 60.227,194.130 59.839,196.000 59.579 C 201.092 58.870,217.487 58.624,222.428 59.182 C 233.722 60.456,236.920 60.892,240.000 61.576 C 244.392 62.550,247.543 63.328,250.000 64.045 C 250.770 64.269,252.030 64.604,252.800 64.787 C 254.394 65.168,256.670 65.943,257.695 66.454 C 258.077 66.644,258.655 66.800,258.981 66.800 C 259.525 66.800,261.609 67.596,263.295 68.449 C 263.677 68.642,264.442 68.800,264.995 68.800 C 265.548 68.800,266.000 68.980,266.000 69.200 C 266.000 69.420,266.540 69.600,267.200 69.600 C 268.000 69.600,268.400 69.400,268.400 69.000 C 268.400 68.627,268.022 68.400,267.400 68.400 C 266.850 68.400,266.400 68.220,266.400 68.000 C 266.400 67.780,266.130 67.600,265.800 67.600 C 265.470 67.600,265.199 67.465,265.197 67.300 C 265.194 66.910,262.892 65.600,262.210 65.600 C 261.922 65.600,261.582 65.330,261.455 65.000 C 261.329 64.670,260.859 64.400,260.413 64.400 C 259.966 64.400,259.600 64.220,259.600 64.000 C 259.600 63.780,259.169 63.600,258.643 63.600 C 258.116 63.600,257.582 63.330,257.455 63.000 C 257.329 62.670,256.769 62.400,256.213 62.400 C 255.656 62.400,255.200 62.220,255.200 62.000 C 255.200 61.780,254.570 61.600,253.800 61.600 C 252.822 61.600,252.400 61.419,252.400 61.000 C 252.400 60.627,252.022 60.400,251.400 60.400 C 250.850 60.400,250.400 60.220,250.400 60.000 C 250.400 59.780,249.972 59.600,249.449 59.600 C 248.926 59.600,248.274 59.330,248.000 59.000 C 247.726 58.670,246.973 58.400,246.327 58.400 C 245.646 58.400,245.257 58.232,245.400 58.000 C 245.549 57.758,245.004 57.600,244.024 57.600 C 242.847 57.600,242.400 57.435,242.400 57.000 C 242.400 56.581,241.978 56.400,241.000 56.400 C 240.230 56.400,239.600 56.220,239.600 56.000 C 239.600 55.780,238.899 55.600,238.043 55.600 C 237.028 55.600,236.405 55.391,236.255 55.000 C 236.098 54.589,235.455 54.400,234.213 54.400 C 233.216 54.400,232.400 54.220,232.400 54.000 C 232.400 53.780,231.757 53.600,230.971 53.600 C 230.186 53.600,229.273 53.330,228.943 53.000 C 228.572 52.629,227.590 52.400,226.371 52.400 C 225.287 52.400,224.400 52.220,224.400 52.000 C 224.400 51.775,223.278 51.600,221.833 51.600 C 220.167 51.600,219.210 51.429,219.104 51.111 C 219.000 50.799,217.795 50.568,215.770 50.472 C 214.027 50.389,212.429 50.159,212.220 49.961 C 211.682 49.450,177.316 49.488,177.000 50.000 M269.200 70.000 C 269.200 70.220,269.470 70.400,269.800 70.400 C 270.130 70.400,270.400 70.220,270.400 70.000 C 270.400 69.780,270.130 69.600,269.800 69.600 C 269.470 69.600,269.200 69.780,269.200 70.000" stroke="none" fill="#f94b14" fill-rule="evenodd"/>
        <path id="path1" d="M271.850 71.120 C 271.686 71.384,271.743 71.600,271.976 71.600 C 272.209 71.600,272.407 71.825,272.415 72.100 C 272.423 72.375,274.430 74.040,276.874 75.800 C 279.319 77.560,281.518 79.180,281.761 79.400 C 282.004 79.620,283.096 80.483,284.188 81.317 C 291.964 87.255,303.081 98.591,309.258 106.881 C 310.127 108.046,311.173 109.450,311.584 110.000 C 320.252 121.620,328.484 138.291,332.915 153.200 C 345.737 196.343,337.861 243.663,311.846 279.800 C 310.737 281.340,309.729 282.690,309.605 282.800 C 309.481 282.910,308.757 283.810,307.996 284.800 C 297.932 297.898,281.333 312.463,268.000 319.895 C 266.790 320.570,264.630 321.785,263.200 322.597 C 253.643 328.019,237.676 334.082,227.000 336.344 C 225.900 336.577,223.830 337.026,222.400 337.343 C 207.930 340.545,188.245 340.797,170.200 338.012 C 166.529 337.445,160.164 336.015,156.800 335.000 C 155.590 334.635,153.970 334.192,153.200 334.015 C 151.145 333.544,147.176 332.152,140.481 329.556 C 139.042 328.998,137.600 329.120,137.600 329.800 C 137.600 330.173,137.978 330.400,138.600 330.400 C 139.222 330.400,139.600 330.627,139.600 331.000 C 139.600 331.330,139.825 331.600,140.100 331.601 C 140.375 331.602,141.644 332.232,142.920 333.001 C 144.196 333.770,145.621 334.400,146.087 334.400 C 146.552 334.400,146.820 334.513,146.682 334.651 C 146.394 334.939,149.093 336.400,149.913 336.400 C 150.212 336.400,150.727 336.670,151.057 337.000 C 151.387 337.330,152.094 337.600,152.629 337.600 C 153.163 337.600,153.600 337.780,153.600 338.000 C 153.600 338.220,154.050 338.400,154.600 338.400 C 155.150 338.400,155.600 338.632,155.600 338.915 C 155.600 339.208,156.156 339.472,156.893 339.528 C 157.605 339.583,158.361 339.801,158.573 340.013 C 158.786 340.226,159.265 340.400,159.637 340.400 C 160.010 340.400,160.418 340.670,160.545 341.000 C 160.689 341.377,161.301 341.600,162.187 341.600 C 162.964 341.600,163.600 341.780,163.600 342.000 C 163.600 342.220,164.208 342.400,164.951 342.400 C 165.694 342.400,166.526 342.670,166.800 343.000 C 167.074 343.330,167.805 343.600,168.425 343.600 C 169.045 343.600,169.664 343.780,169.800 344.000 C 169.936 344.220,170.847 344.400,171.824 344.400 C 173.136 344.400,173.600 344.557,173.600 345.000 C 173.600 345.454,174.092 345.600,175.624 345.600 C 176.871 345.600,177.552 345.753,177.400 346.000 C 177.247 346.248,177.982 346.400,179.334 346.400 C 180.903 346.400,181.579 346.568,181.745 347.000 C 181.917 347.449,182.637 347.600,184.611 347.600 C 186.267 347.600,187.155 347.749,187.000 348.000 C 186.843 348.253,188.008 348.418,190.176 348.450 C 194.392 348.512,194.252 348.492,194.860 349.100 C 195.658 349.898,227.162 349.816,228.224 349.013 C 228.756 348.610,230.031 348.421,232.276 348.413 C 234.078 348.406,235.664 348.220,235.800 348.000 C 235.936 347.780,237.014 347.600,238.195 347.600 C 239.571 347.600,240.559 347.384,240.943 347.000 C 241.317 346.626,242.299 346.400,243.548 346.400 C 244.651 346.400,245.664 346.220,245.800 346.000 C 245.936 345.780,246.762 345.600,247.636 345.600 C 248.680 345.600,249.304 345.394,249.455 345.000 C 249.611 344.594,250.247 344.400,251.419 344.400 C 252.373 344.400,253.264 344.220,253.400 344.000 C 253.536 343.780,254.182 343.600,254.836 343.600 C 255.524 343.600,256.122 343.347,256.255 343.000 C 256.396 342.633,257.003 342.400,257.819 342.400 C 258.553 342.400,259.264 342.220,259.400 342.000 C 259.536 341.780,260.074 341.600,260.595 341.600 C 261.116 341.600,261.813 341.330,262.143 341.000 C 262.473 340.670,263.216 340.400,263.795 340.400 C 264.395 340.400,264.741 340.228,264.600 340.000 C 264.456 339.767,264.853 339.600,265.548 339.600 C 266.205 339.600,267.013 339.330,267.343 339.000 C 267.673 338.670,268.316 338.400,268.771 338.400 C 269.227 338.400,269.600 338.220,269.600 338.000 C 269.600 337.780,270.050 337.600,270.600 337.600 C 271.150 337.600,271.600 337.409,271.600 337.176 C 271.600 336.943,271.780 336.864,272.000 337.000 C 272.220 337.136,272.400 337.057,272.400 336.824 C 272.400 336.591,272.749 336.400,273.176 336.400 C 273.603 336.400,274.064 336.220,274.200 336.000 C 274.336 335.780,274.802 335.600,275.236 335.600 C 275.670 335.600,276.129 335.330,276.255 335.000 C 276.382 334.670,276.709 334.400,276.981 334.400 C 277.635 334.400,279.921 333.251,280.216 332.775 C 280.343 332.569,280.770 332.400,281.165 332.400 C 281.560 332.400,282.369 331.950,282.962 331.400 C 283.556 330.850,284.392 330.400,284.821 330.400 C 285.249 330.400,285.600 330.220,285.600 330.000 C 285.600 329.780,285.827 329.600,286.104 329.600 C 286.381 329.600,287.070 329.172,287.633 328.649 C 288.197 328.127,289.050 327.574,289.529 327.422 C 290.008 327.270,290.400 326.978,290.400 326.773 C 290.400 326.568,290.670 326.400,291.000 326.400 C 291.330 326.400,291.600 326.220,291.600 326.000 C 291.600 325.780,291.827 325.600,292.104 325.600 C 292.381 325.600,293.106 325.138,293.714 324.574 C 294.323 324.010,295.176 323.522,295.610 323.489 C 296.045 323.457,296.400 323.198,296.400 322.915 C 296.400 322.632,296.627 322.400,296.905 322.400 C 297.183 322.400,297.748 321.950,298.161 321.400 C 298.574 320.850,299.181 320.400,299.509 320.400 C 299.837 320.400,300.700 319.770,301.426 319.000 C 302.152 318.230,302.895 317.600,303.077 317.600 C 303.259 317.600,303.893 317.150,304.487 316.600 C 305.080 316.050,305.753 315.600,305.983 315.600 C 306.212 315.600,306.400 315.360,306.400 315.068 C 306.400 314.775,306.850 314.294,307.400 314.000 C 307.950 313.706,308.400 313.225,308.400 312.932 C 308.400 312.640,308.593 312.400,308.829 312.400 C 309.382 312.400,310.400 311.382,310.400 310.829 C 310.400 310.593,310.627 310.400,310.905 310.400 C 311.183 310.400,311.748 309.950,312.161 309.400 C 312.574 308.850,313.124 308.400,313.384 308.400 C 313.644 308.400,314.384 307.728,315.028 306.907 C 315.673 306.085,316.695 304.921,317.300 304.320 C 317.905 303.719,318.400 303.041,318.400 302.813 C 318.400 302.586,318.593 302.400,318.829 302.400 C 319.350 302.400,320.400 301.395,320.400 300.896 C 320.400 300.698,320.850 300.294,321.400 300.000 C 321.950 299.706,322.400 299.225,322.400 298.932 C 322.400 298.640,322.572 298.400,322.781 298.400 C 322.991 298.400,323.461 297.770,323.827 297.000 C 324.192 296.230,324.741 295.600,325.046 295.600 C 325.351 295.600,325.600 295.412,325.600 295.183 C 325.600 294.953,326.050 294.280,326.600 293.687 C 327.150 293.093,327.600 292.381,327.600 292.104 C 327.600 291.827,327.780 291.600,328.000 291.600 C 328.220 291.600,328.400 291.429,328.400 291.221 C 328.400 291.012,328.850 290.356,329.400 289.762 C 329.950 289.169,330.400 288.521,330.400 288.322 C 330.400 288.124,330.850 287.545,331.400 287.035 C 331.950 286.525,332.400 285.724,332.400 285.254 C 332.400 284.784,332.605 284.400,332.856 284.400 C 333.457 284.400,334.371 283.172,334.387 282.343 C 334.394 281.981,334.670 281.582,335.000 281.455 C 335.330 281.329,335.600 280.939,335.600 280.589 C 335.600 280.239,335.784 280.067,336.010 280.206 C 336.235 280.345,336.394 280.311,336.363 280.130 C 336.201 279.201,336.457 278.400,336.915 278.400 C 337.198 278.400,337.460 277.998,337.497 277.506 C 337.534 277.014,337.752 276.549,337.982 276.473 C 338.212 276.396,338.400 275.983,338.400 275.554 C 338.400 275.126,338.670 274.671,339.000 274.545 C 339.330 274.418,339.600 273.963,339.600 273.534 C 339.600 273.104,339.780 272.864,340.000 273.000 C 340.227 273.140,340.400 272.804,340.400 272.224 C 340.400 271.661,340.577 271.200,340.792 271.200 C 341.008 271.200,341.298 270.750,341.436 270.200 C 341.574 269.650,341.847 269.200,342.043 269.200 C 342.240 269.200,342.400 268.827,342.400 268.371 C 342.400 267.916,342.670 267.273,343.000 266.943 C 343.330 266.613,343.600 265.906,343.600 265.371 C 343.600 264.837,343.780 264.400,344.000 264.400 C 344.220 264.400,344.400 263.950,344.400 263.400 C 344.400 262.778,344.627 262.400,345.000 262.400 C 345.373 262.400,345.600 262.022,345.600 261.400 C 345.600 260.850,345.780 260.400,346.000 260.400 C 346.220 260.400,346.400 259.789,346.400 259.043 C 346.400 258.205,346.630 257.597,347.000 257.455 C 347.330 257.329,347.600 256.780,347.600 256.236 C 347.600 255.692,347.780 255.136,348.000 255.000 C 348.220 254.864,348.400 254.243,348.400 253.619 C 348.400 252.981,348.662 252.385,349.000 252.255 C 349.347 252.122,349.600 251.524,349.600 250.836 C 349.600 250.182,349.780 249.536,350.000 249.400 C 350.220 249.264,350.400 248.463,350.400 247.619 C 350.400 246.625,350.611 246.005,351.000 245.855 C 351.396 245.703,351.600 245.077,351.600 244.013 C 351.600 243.126,351.780 242.400,352.000 242.400 C 352.220 242.400,352.400 241.519,352.400 240.443 C 352.400 239.072,352.580 238.417,353.000 238.255 C 353.410 238.098,353.600 237.457,353.600 236.236 C 353.600 235.252,353.780 234.336,354.000 234.200 C 354.220 234.064,354.400 232.723,354.400 231.219 C 354.400 229.158,354.548 228.429,355.000 228.255 C 355.464 228.077,355.600 227.302,355.600 224.836 C 355.600 223.082,355.780 221.536,356.000 221.400 C 356.257 221.241,356.400 215.004,356.400 204.000 C 356.400 192.996,356.257 186.759,356.000 186.600 C 355.780 186.464,355.600 184.918,355.600 183.164 C 355.600 180.698,355.464 179.923,355.000 179.745 C 354.547 179.571,354.400 178.839,354.400 176.757 C 354.400 175.186,354.228 174.000,354.000 174.000 C 353.780 174.000,353.600 173.094,353.600 171.987 C 353.600 170.568,353.423 169.907,353.000 169.745 C 352.580 169.583,352.400 168.928,352.400 167.557 C 352.400 166.481,352.220 165.600,352.000 165.600 C 351.780 165.600,351.598 165.105,351.595 164.500 C 351.587 162.912,351.166 161.574,350.755 161.828 C 350.560 161.949,350.400 161.327,350.400 160.447 C 350.400 159.567,350.220 158.736,350.000 158.600 C 349.780 158.464,349.600 157.818,349.600 157.164 C 349.600 156.476,349.347 155.878,349.000 155.745 C 348.670 155.618,348.397 155.129,348.394 154.657 C 348.385 153.415,347.359 150.653,346.842 150.481 C 346.599 150.400,346.400 149.819,346.400 149.190 C 346.400 148.562,346.220 147.936,346.000 147.800 C 345.780 147.664,345.600 147.113,345.600 146.576 C 345.600 145.975,345.369 145.600,345.000 145.600 C 344.627 145.600,344.400 145.222,344.400 144.600 C 344.400 144.050,344.220 143.600,344.000 143.600 C 343.780 143.600,343.600 143.163,343.600 142.629 C 343.600 142.094,343.330 141.387,343.000 141.057 C 342.670 140.727,342.400 140.084,342.400 139.629 C 342.400 139.173,342.220 138.800,342.000 138.800 C 341.780 138.800,341.600 138.462,341.600 138.049 C 341.600 137.636,341.330 137.074,341.000 136.800 C 340.670 136.526,340.400 135.953,340.400 135.527 C 340.400 135.101,340.220 134.864,340.000 135.000 C 339.780 135.136,339.600 134.896,339.600 134.466 C 339.600 134.037,339.330 133.582,339.000 133.455 C 338.670 133.329,338.400 132.874,338.400 132.446 C 338.400 132.017,338.212 131.604,337.982 131.527 C 337.752 131.451,337.534 130.986,337.497 130.494 C 337.460 130.002,337.198 129.600,336.915 129.600 C 336.457 129.600,336.201 128.799,336.363 127.870 C 336.394 127.689,336.235 127.655,336.010 127.794 C 335.784 127.933,335.600 127.786,335.600 127.466 C 335.600 127.147,335.330 126.782,335.000 126.655 C 334.670 126.529,334.394 126.104,334.387 125.713 C 334.372 124.838,333.475 123.600,332.856 123.600 C 332.605 123.600,332.400 123.150,332.400 122.600 C 332.400 122.050,332.220 121.600,332.000 121.600 C 331.780 121.600,331.600 121.330,331.600 121.000 C 331.600 120.670,331.330 120.400,331.000 120.400 C 330.670 120.400,330.400 120.122,330.400 119.782 C 330.400 119.442,329.950 118.714,329.400 118.164 C 328.850 117.614,328.400 116.992,328.400 116.782 C 328.400 116.572,328.220 116.400,328.000 116.400 C 327.780 116.400,327.600 116.138,327.600 115.818 C 327.600 115.498,327.150 114.786,326.600 114.236 C 326.050 113.686,325.600 113.048,325.600 112.818 C 325.600 112.588,325.351 112.400,325.046 112.400 C 324.741 112.400,324.192 111.770,323.827 111.000 C 323.461 110.230,322.991 109.600,322.781 109.600 C 322.572 109.600,322.400 109.360,322.400 109.068 C 322.400 108.775,321.950 108.294,321.400 108.000 C 320.850 107.706,320.400 107.302,320.400 107.104 C 320.400 106.605,319.350 105.600,318.829 105.600 C 318.593 105.600,318.400 105.431,318.400 105.225 C 318.400 104.821,316.002 102.060,314.436 100.661 C 313.906 100.187,312.515 98.855,311.345 97.700 C 310.175 96.545,309.033 95.600,308.809 95.600 C 308.584 95.600,308.400 95.407,308.400 95.171 C 308.400 94.618,307.382 93.600,306.829 93.600 C 306.593 93.600,306.400 93.330,306.400 93.000 C 306.400 92.670,306.265 92.445,306.100 92.500 C 305.935 92.555,305.766 92.442,305.725 92.249 C 305.657 91.932,304.737 91.302,303.239 90.550 C 302.931 90.395,302.060 89.667,301.305 88.934 C 300.549 88.200,299.702 87.600,299.422 87.600 C 299.141 87.600,298.574 87.150,298.161 86.600 C 297.748 86.050,297.183 85.600,296.905 85.600 C 296.627 85.600,296.400 85.423,296.400 85.208 C 296.400 84.992,295.950 84.702,295.400 84.564 C 294.850 84.426,294.400 84.181,294.400 84.020 C 294.400 83.858,293.770 83.387,293.000 82.972 C 292.230 82.557,291.600 82.079,291.600 81.909 C 291.600 81.739,291.330 81.600,291.000 81.600 C 290.670 81.600,290.400 81.368,290.400 81.085 C 290.400 80.802,290.025 80.542,289.567 80.507 C 289.108 80.473,288.307 79.985,287.786 79.422 C 287.265 78.860,286.570 78.400,286.243 78.400 C 285.915 78.400,285.536 78.220,285.400 78.000 C 285.264 77.780,284.803 77.600,284.376 77.600 C 283.949 77.600,283.599 77.375,283.597 77.100 C 283.594 76.580,281.836 75.600,280.908 75.600 C 280.615 75.600,280.271 75.330,280.145 75.000 C 280.018 74.670,279.584 74.400,279.181 74.400 C 278.777 74.400,278.336 74.220,278.200 74.000 C 278.064 73.780,277.623 73.600,277.219 73.600 C 276.816 73.600,276.378 73.319,276.246 72.975 C 276.114 72.631,275.851 72.445,275.662 72.562 C 275.473 72.679,274.976 72.516,274.559 72.200 C 274.142 71.884,273.500 71.620,273.133 71.613 C 272.767 71.606,272.395 71.384,272.307 71.120 C 272.182 70.746,272.081 70.746,271.850 71.120 M252.000 151.800 C 251.028 152.790,250.323 153.600,250.433 153.600 C 250.543 153.600,251.428 152.790,252.400 151.800 C 253.372 150.810,254.077 150.000,253.967 150.000 C 253.857 150.000,252.972 150.810,252.000 151.800 M255.700 155.091 C 256.525 155.178,257.875 155.178,258.700 155.091 C 259.525 155.005,258.850 154.934,257.200 154.934 C 255.550 154.934,254.875 155.005,255.700 155.091 M241.709 174.000 C 241.709 174.990,241.787 175.395,241.882 174.900 C 241.978 174.405,241.978 173.595,241.882 173.100 C 241.787 172.605,241.709 173.010,241.709 174.000 M212.798 191.100 L 197.400 206.600 212.900 191.202 C 227.306 176.891,228.580 175.600,228.298 175.600 C 228.242 175.600,221.267 182.575,212.798 191.100 M229.701 177.000 C 229.705 177.880,229.787 178.193,229.883 177.695 C 229.979 177.198,229.975 176.478,229.875 176.095 C 229.775 175.713,229.696 176.120,229.701 177.000 M151.714 223.000 C 151.717 224.100,151.795 224.503,151.887 223.895 C 151.979 223.286,151.977 222.386,151.882 221.895 C 151.787 221.403,151.711 221.900,151.714 223.000 M135.600 328.757 C 135.600 328.954,135.885 329.224,136.233 329.357 C 137.127 329.700,137.200 329.673,137.200 329.000 C 137.200 328.667,136.844 328.400,136.400 328.400 C 135.960 328.400,135.600 328.561,135.600 328.757" stroke="none" fill="#0473bb" fill-rule="evenodd"/>
        <path id="path2" d="M216.679 170.027 C 200.882 185.852,187.794 198.800,187.596 198.800 C 187.397 198.800,185.742 198.023,183.917 197.074 C 179.421 194.734,173.713 193.217,169.400 193.215 C 166.269 193.214,159.210 194.754,158.220 195.655 C 158.011 195.845,157.593 196.000,157.290 196.000 C 155.429 196.000,147.655 202.481,144.868 206.357 C 139.617 213.658,138.173 225.744,141.589 233.800 C 145.653 243.384,153.641 251.048,162.805 254.155 C 165.787 255.166,171.994 256.090,173.975 255.817 C 177.133 255.383,180.174 254.745,180.895 254.366 C 181.277 254.164,181.817 253.999,182.095 253.998 C 185.096 253.990,194.088 246.718,197.426 241.600 C 201.596 235.207,203.111 226.324,201.214 219.400 C 199.900 214.607,199.676 214.005,198.218 211.353 C 197.438 209.934,196.800 208.374,196.801 207.886 C 196.802 206.771,228.422 175.008,229.255 175.284 C 229.665 175.420,229.850 176.794,230.000 180.832 L 230.200 186.200 236.000 186.200 L 241.800 186.200 241.800 176.600 L 241.800 167.000 251.300 166.893 L 260.800 166.786 260.800 160.993 L 260.800 155.200 258.700 155.198 C 254.960 155.193,250.000 154.691,250.000 154.317 C 250.000 154.116,250.937 152.961,252.082 151.750 L 254.165 149.548 249.982 145.383 C 247.682 143.093,245.710 141.226,245.600 141.236 C 245.490 141.245,232.475 154.201,216.679 170.027 M172.869 205.642 C 184.641 208.085,192.960 221.313,189.198 231.605 C 183.073 248.362,160.247 247.244,152.977 229.831 C 147.584 216.913,159.188 202.803,172.869 205.642" stroke="none" fill="#f5f6f6" fill-rule="evenodd"/>
        <path id="path3" d="M201.800 59.642 C 190.258 60.853,184.668 61.665,180.000 62.809 C 174.340 64.197,171.541 64.998,165.995 66.819 C 161.569 68.272,160.504 68.663,157.740 69.856 C 157.046 70.155,156.376 70.400,156.250 70.400 C 155.661 70.400,146.144 74.962,142.800 76.848 C 141.590 77.530,139.610 78.636,138.400 79.306 C 136.444 80.388,127.112 86.576,125.878 87.609 C 125.615 87.829,124.680 88.562,123.800 89.237 C 118.262 93.487,113.442 97.825,108.000 103.455 C 103.485 108.125,102.693 109.017,98.987 113.610 C 96.528 116.658,95.994 117.383,94.136 120.200 C 93.555 121.080,92.964 121.890,92.822 122.000 C 92.343 122.371,83.200 137.367,83.200 137.782 C 83.200 137.853,82.300 139.823,81.200 142.161 C 80.100 144.499,79.200 146.494,79.200 146.595 C 79.200 146.696,78.767 147.728,78.238 148.889 C 75.881 154.062,72.689 164.048,71.170 171.000 C 69.430 178.969,69.293 179.784,68.459 187.200 C 66.778 202.137,66.776 205.708,68.439 220.600 C 69.454 229.682,70.136 233.321,72.528 242.400 C 73.857 247.448,76.145 254.306,77.866 258.400 C 78.189 259.170,78.599 260.160,78.775 260.600 C 79.841 263.253,83.348 270.472,85.116 273.650 C 87.949 278.741,94.450 288.796,95.900 290.329 C 96.175 290.619,96.400 290.981,96.400 291.133 C 96.400 291.285,97.027 292.127,97.794 293.004 C 98.561 293.882,100.136 295.811,101.294 297.291 C 103.945 300.679,116.019 312.628,120.000 315.805 C 121.650 317.121,123.090 318.300,123.200 318.424 C 123.310 318.548,125.470 320.122,128.000 321.923 C 130.530 323.723,132.817 325.377,133.083 325.598 C 133.349 325.819,133.759 326.000,133.996 326.000 C 134.232 326.000,134.529 326.270,134.655 326.600 C 134.782 326.930,135.142 327.200,135.455 327.200 C 135.769 327.200,136.124 327.459,136.246 327.775 C 136.367 328.091,136.692 328.263,136.969 328.157 C 137.246 328.050,137.703 328.242,137.985 328.582 C 138.267 328.922,138.915 329.200,139.425 329.200 C 139.935 329.200,140.464 329.380,140.600 329.600 C 140.736 329.820,141.251 330.000,141.744 330.000 C 142.237 330.000,142.811 330.161,143.020 330.358 C 143.416 330.731,151.638 333.464,155.800 334.606 C 157.120 334.968,158.650 335.410,159.200 335.589 C 159.750 335.768,161.280 336.135,162.600 336.404 C 163.920 336.674,166.080 337.127,167.400 337.411 C 173.936 338.816,186.259 340.000,194.338 339.999 C 202.946 339.998,215.969 338.664,223.600 337.002 C 225.250 336.642,227.320 336.196,228.200 336.009 C 229.080 335.823,230.790 335.371,232.000 335.004 C 233.210 334.637,234.830 334.192,235.600 334.015 C 238.346 333.385,244.983 330.968,251.000 328.405 C 257.612 325.589,264.111 322.263,268.708 319.340 C 269.867 318.603,270.874 318.000,270.947 318.000 C 271.324 318.000,280.688 311.522,282.600 309.939 C 289.693 304.065,292.146 301.883,296.233 297.813 C 303.311 290.765,308.137 284.938,314.398 275.882 C 315.279 274.607,316.000 273.454,316.000 273.320 C 316.000 273.186,316.450 272.486,317.000 271.764 C 317.550 271.043,318.000 270.334,318.000 270.188 C 318.000 270.043,318.335 269.446,318.743 268.862 C 320.874 265.819,328.000 251.491,328.000 250.251 C 328.000 249.981,328.150 249.589,328.334 249.380 C 328.518 249.171,328.982 248.100,329.365 247.000 C 329.748 245.900,330.213 244.640,330.398 244.200 C 332.042 240.285,334.963 229.594,336.354 222.400 C 339.675 205.228,339.673 184.568,336.349 167.600 C 334.986 160.644,332.117 150.133,330.398 145.800 C 330.224 145.360,329.856 144.370,329.580 143.600 C 328.959 141.862,328.039 139.624,326.372 135.800 C 325.015 132.686,320.843 124.443,320.400 124.000 C 320.215 123.815,319.413 122.424,318.259 120.285 C 310.841 106.532,294.333 88.595,278.800 77.407 C 276.710 75.902,274.940 74.520,274.867 74.335 C 274.793 74.151,274.473 74.000,274.154 74.000 C 273.836 74.000,273.471 73.730,273.345 73.400 C 273.218 73.070,272.774 72.800,272.357 72.800 C 271.941 72.800,271.600 72.620,271.600 72.400 C 271.600 72.180,271.234 72.000,270.787 72.000 C 270.341 72.000,269.872 71.731,269.746 71.402 C 269.619 71.074,269.347 70.909,269.140 71.037 C 268.934 71.164,268.329 70.983,267.796 70.634 C 267.264 70.286,266.549 70.000,266.209 70.000 C 265.868 70.000,265.277 69.831,264.895 69.625 C 263.554 68.901,254.274 65.691,252.000 65.165 C 251.230 64.987,249.610 64.543,248.400 64.179 C 247.190 63.815,245.480 63.363,244.600 63.176 C 235.158 61.169,233.364 60.906,220.200 59.594 C 215.570 59.133,206.431 59.157,201.800 59.642 M250.576 145.022 C 255.226 149.718,255.204 149.641,252.709 152.250 L 251.132 153.900 255.066 154.168 C 257.230 154.315,259.499 154.533,260.110 154.652 L 261.220 154.868 261.110 161.134 L 261.000 167.400 251.707 167.251 L 242.414 167.103 242.307 177.051 L 242.200 187.000 236.120 187.110 C 228.811 187.243,229.233 187.605,228.904 180.924 L 228.677 176.326 212.939 192.061 C 198.661 206.336,196.399 208.800,197.573 208.800 C 197.778 208.800,198.072 209.205,198.227 209.700 C 198.381 210.195,198.619 210.690,198.754 210.800 C 199.154 211.125,200.305 213.677,200.829 215.400 C 201.096 216.280,201.559 217.679,201.857 218.508 C 202.676 220.783,202.601 231.200,201.747 233.800 C 199.686 240.078,197.949 242.924,193.432 247.423 C 190.333 250.510,188.399 251.942,185.400 253.369 C 184.080 253.997,182.687 254.666,182.305 254.855 C 181.923 255.045,181.270 255.200,180.854 255.200 C 180.438 255.200,179.451 255.470,178.662 255.800 C 176.765 256.593,168.457 256.623,165.971 255.847 C 164.997 255.543,163.406 255.054,162.435 254.761 C 155.978 252.814,142.800 241.588,142.800 238.035 C 142.800 237.764,142.530 237.273,142.200 236.943 C 141.870 236.613,141.600 236.006,141.600 235.595 C 141.600 235.184,141.420 234.736,141.200 234.600 C 140.980 234.464,140.800 233.949,140.800 233.456 C 140.800 232.963,140.614 232.374,140.386 232.146 C 138.651 230.411,138.655 215.585,140.391 213.849 C 140.616 213.624,140.800 213.133,140.800 212.757 C 140.800 211.988,142.718 208.082,143.494 207.271 C 143.772 206.981,144.000 206.572,144.000 206.363 C 144.000 205.761,152.122 197.864,153.424 197.201 C 154.071 196.871,154.690 196.511,154.800 196.401 C 155.238 195.962,157.696 194.800,158.187 194.800 C 158.474 194.800,159.224 194.531,159.854 194.202 C 160.484 193.874,161.459 193.604,162.020 193.602 C 162.581 193.601,163.230 193.410,163.461 193.179 C 164.494 192.146,178.162 193.214,179.380 194.423 C 179.589 194.630,180.069 194.800,180.448 194.800 C 180.826 194.800,182.595 195.559,184.380 196.487 L 187.625 198.174 216.312 169.487 C 232.359 153.441,245.307 140.800,245.697 140.800 C 246.080 140.800,248.276 142.700,250.576 145.022 M166.600 206.266 C 165.026 206.419,164.382 206.635,161.600 207.942 C 157.983 209.642,153.200 215.354,153.200 217.973 C 153.200 218.402,153.020 218.864,152.800 219.000 C 152.579 219.136,152.400 220.930,152.400 223.000 C 152.400 225.070,152.579 226.864,152.800 227.000 C 153.020 227.136,153.200 227.660,153.200 228.164 C 153.200 230.033,156.601 235.240,159.344 237.573 C 159.973 238.108,160.709 238.766,160.978 239.036 C 161.492 239.550,164.340 241.043,166.914 242.150 C 167.969 242.603,169.615 242.800,172.352 242.800 C 176.100 242.800,177.080 242.583,179.695 241.174 C 180.077 240.968,180.570 240.800,180.792 240.800 C 181.880 240.800,186.167 236.331,187.314 234.000 C 187.801 233.010,188.313 232.110,188.451 232.000 C 190.504 230.369,188.937 219.029,186.201 215.714 C 185.981 215.447,185.575 214.959,185.300 214.631 C 185.025 214.302,184.800 213.945,184.800 213.836 C 184.800 213.632,182.616 211.466,181.328 210.393 C 179.867 209.175,176.369 207.200,175.674 207.200 C 175.281 207.200,174.789 207.040,174.580 206.844 C 174.131 206.424,168.887 206.044,166.600 206.266" stroke="none" fill="#04240c" fill-rule="evenodd"/>
        <path id="path4" d="M201.600 59.012 C 201.270 59.078,199.110 59.334,196.800 59.583 C 189.588 60.357,187.311 60.728,179.200 62.451 C 178.210 62.661,176.500 63.081,175.400 63.383 C 174.300 63.686,172.590 64.146,171.600 64.405 C 170.610 64.665,169.209 65.130,168.486 65.438 C 167.764 65.747,166.830 66.000,166.410 66.000 C 165.990 66.000,165.536 66.180,165.400 66.400 C 165.264 66.620,164.810 66.800,164.390 66.800 C 163.970 66.800,162.946 67.095,162.114 67.455 C 161.281 67.816,160.240 68.247,159.800 68.414 C 154.044 70.596,147.016 73.869,141.800 76.796 C 140.480 77.537,139.040 78.339,138.600 78.579 C 137.473 79.192,135.678 80.328,133.735 81.659 C 132.819 82.287,131.962 82.800,131.831 82.800 C 131.558 82.800,124.303 87.988,124.000 88.400 C 123.890 88.549,123.023 89.230,122.073 89.912 C 117.883 92.921,106.002 104.293,101.979 109.145 C 101.000 110.325,100.017 111.495,99.794 111.745 C 99.571 111.995,98.763 113.010,97.998 114.000 C 97.233 114.990,96.291 116.149,95.904 116.575 C 95.517 117.002,95.200 117.484,95.200 117.647 C 95.200 117.810,94.958 118.185,94.663 118.480 C 94.367 118.776,93.620 119.824,93.003 120.809 C 92.385 121.794,91.763 122.690,91.619 122.800 C 91.476 122.910,90.145 124.980,88.663 127.400 C 87.181 129.820,85.801 132.070,85.597 132.400 C 85.062 133.265,78.791 146.011,78.316 147.200 C 78.096 147.750,77.679 148.740,77.389 149.400 C 76.446 151.545,73.336 160.660,72.407 164.000 C 72.131 164.990,71.657 166.597,71.353 167.571 C 71.049 168.545,70.800 169.703,70.800 170.143 C 70.800 170.583,70.632 171.496,70.426 172.172 C 69.474 175.298,68.459 181.304,67.514 189.400 C 66.846 195.115,66.846 212.885,67.514 218.600 C 68.183 224.337,68.737 228.127,69.267 230.600 C 69.712 232.679,70.154 234.798,70.747 237.700 C 71.203 239.926,72.032 243.193,72.397 244.200 C 72.557 244.640,73.001 246.080,73.384 247.400 C 73.767 248.720,74.242 250.113,74.440 250.495 C 74.638 250.877,74.800 251.455,74.800 251.781 C 74.800 252.107,75.095 253.054,75.455 253.886 C 75.816 254.719,76.285 255.850,76.498 256.400 C 76.870 257.364,77.418 258.693,78.312 260.800 C 79.149 262.774,81.692 268.231,82.505 269.800 C 84.146 272.964,85.247 275.014,85.719 275.785 C 86.996 277.870,88.185 279.877,88.572 280.602 C 89.357 282.073,95.134 290.588,95.907 291.413 C 96.326 291.860,97.227 292.997,97.910 293.940 C 101.295 298.612,110.951 308.808,116.197 313.248 C 117.075 313.992,118.245 315.016,118.797 315.524 C 119.349 316.032,122.230 318.274,125.200 320.506 C 128.170 322.738,130.660 324.707,130.733 324.882 C 130.807 325.057,131.102 325.200,131.391 325.200 C 131.679 325.200,132.018 325.470,132.145 325.800 C 132.271 326.130,132.651 326.400,132.987 326.400 C 133.324 326.400,133.600 326.593,133.600 326.829 C 133.600 327.534,134.686 328.400,135.571 328.400 C 136.617 328.400,136.659 327.593,135.628 327.323 C 135.203 327.212,134.759 326.869,134.640 326.561 C 134.522 326.252,134.232 326.000,133.996 326.000 C 133.759 326.000,133.349 325.819,133.083 325.598 C 132.817 325.377,130.530 323.723,128.000 321.923 C 125.470 320.122,123.310 318.548,123.200 318.424 C 123.090 318.300,121.650 317.121,120.000 315.805 C 116.019 312.628,103.945 300.679,101.294 297.291 C 100.136 295.811,98.561 293.882,97.794 293.004 C 97.027 292.127,96.400 291.285,96.400 291.133 C 96.400 290.981,96.175 290.619,95.900 290.329 C 94.450 288.796,87.949 278.741,85.116 273.650 C 83.203 270.211,80.176 263.950,78.613 260.200 C 78.246 259.320,77.793 258.240,77.605 257.800 C 74.441 250.376,70.301 235.191,69.207 227.000 C 66.796 208.950,66.683 202.978,68.459 187.200 C 69.293 179.784,69.430 178.969,71.170 171.000 C 72.689 164.048,75.881 154.062,78.238 148.889 C 78.767 147.728,79.200 146.696,79.200 146.595 C 79.200 146.494,80.100 144.499,81.200 142.161 C 82.300 139.823,83.200 137.853,83.200 137.782 C 83.200 137.367,92.343 122.371,92.822 122.000 C 92.964 121.890,93.555 121.080,94.136 120.200 C 95.994 117.383,96.528 116.658,98.987 113.610 C 102.693 109.017,103.485 108.125,108.000 103.455 C 113.442 97.825,118.262 93.487,123.800 89.237 C 124.680 88.562,125.615 87.829,125.878 87.609 C 127.112 86.576,136.444 80.388,138.400 79.306 C 139.610 78.636,141.590 77.530,142.800 76.848 C 146.144 74.962,155.661 70.400,156.250 70.400 C 156.376 70.400,157.046 70.155,157.740 69.856 C 160.504 68.663,161.569 68.272,165.995 66.819 C 175.042 63.849,181.658 62.199,188.400 61.233 C 202.114 59.267,211.870 58.764,220.200 59.594 C 233.364 60.906,235.158 61.169,244.600 63.176 C 245.480 63.363,247.190 63.815,248.400 64.179 C 249.610 64.543,251.230 64.987,252.000 65.165 C 254.274 65.691,263.554 68.901,264.895 69.625 C 265.277 69.831,265.868 70.000,266.209 70.000 C 266.549 70.000,267.264 70.286,267.796 70.634 C 268.329 70.983,268.934 71.164,269.140 71.037 C 269.347 70.909,269.619 71.074,269.746 71.402 C 269.872 71.731,270.341 72.000,270.787 72.000 C 271.234 72.000,271.600 72.180,271.600 72.400 C 271.600 72.620,271.780 72.800,272.000 72.800 C 272.606 72.800,272.480 72.103,271.711 71.205 C 271.332 70.762,270.612 70.400,270.111 70.400 C 269.610 70.400,269.200 70.220,269.200 70.000 C 269.200 69.780,268.480 69.600,267.600 69.600 C 266.720 69.600,266.000 69.420,266.000 69.200 C 266.000 68.980,265.548 68.800,264.995 68.800 C 264.442 68.800,263.677 68.642,263.295 68.449 C 261.609 67.596,259.525 66.800,258.981 66.800 C 258.655 66.800,258.077 66.644,257.695 66.454 C 256.670 65.943,254.394 65.168,252.800 64.787 C 252.030 64.604,250.770 64.269,250.000 64.045 C 248.443 63.591,245.733 62.891,243.600 62.392 C 238.135 61.113,236.281 60.796,229.800 60.035 C 228.040 59.828,224.980 59.467,223.000 59.233 C 219.852 58.860,203.227 58.689,201.600 59.012 M216.312 169.487 L 187.625 198.174 184.380 196.487 C 182.595 195.559,180.826 194.800,180.448 194.800 C 180.069 194.800,179.589 194.630,179.380 194.423 C 178.162 193.214,164.494 192.146,163.461 193.179 C 163.230 193.410,162.581 193.601,162.020 193.602 C 161.459 193.604,160.484 193.874,159.854 194.202 C 159.224 194.531,158.474 194.800,158.187 194.800 C 157.696 194.800,155.238 195.962,154.800 196.401 C 154.690 196.511,154.071 196.871,153.424 197.201 C 152.122 197.864,144.000 205.761,144.000 206.363 C 144.000 206.572,143.772 206.981,143.494 207.271 C 142.718 208.082,140.800 211.988,140.800 212.757 C 140.800 213.133,140.616 213.624,140.391 213.849 C 138.655 215.585,138.651 230.411,140.386 232.146 C 140.614 232.374,140.800 232.963,140.800 233.456 C 140.800 233.949,140.980 234.464,141.200 234.600 C 141.420 234.736,141.600 235.184,141.600 235.595 C 141.600 236.006,141.870 236.613,142.200 236.943 C 142.530 237.273,142.800 237.764,142.800 238.035 C 142.800 241.588,155.978 252.814,162.435 254.761 C 163.406 255.054,164.997 255.543,165.971 255.847 C 168.457 256.623,176.765 256.593,178.662 255.800 C 179.451 255.470,180.438 255.200,180.854 255.200 C 181.270 255.200,181.923 255.045,182.305 254.855 C 182.687 254.666,184.080 253.997,185.400 253.369 C 188.399 251.942,190.333 250.510,193.432 247.423 C 197.949 242.924,199.686 240.078,201.747 233.800 C 202.601 231.200,202.676 220.783,201.857 218.508 C 201.559 217.679,201.096 216.280,200.829 215.400 C 200.305 213.677,199.154 211.125,198.754 210.800 C 198.619 210.690,198.381 210.195,198.227 209.700 C 198.072 209.205,197.778 208.800,197.573 208.800 C 196.399 208.800,198.661 206.336,212.939 192.061 L 228.677 176.326 228.904 180.924 C 229.233 187.605,228.811 187.243,236.120 187.110 L 242.200 187.000 242.307 177.051 L 242.414 167.103 251.707 167.251 L 261.000 167.400 261.110 161.134 L 261.220 154.868 260.110 154.652 C 259.499 154.533,257.230 154.315,255.066 154.168 L 251.132 153.900 252.709 152.250 C 253.577 151.342,254.393 150.295,254.522 149.922 C 254.809 149.096,246.783 140.800,245.697 140.800 C 245.307 140.800,232.359 153.441,216.312 169.487 M249.893 145.293 C 254.679 150.062,254.561 149.677,252.000 152.200 C 249.334 154.826,249.306 154.800,254.767 154.800 C 261.340 154.800,260.800 154.242,260.800 161.043 L 260.800 166.800 251.833 166.800 C 246.901 166.800,242.594 166.904,242.261 167.032 C 241.737 167.233,241.688 168.524,241.891 176.843 L 242.125 186.422 236.162 186.311 L 230.200 186.200 229.919 180.852 C 229.764 177.911,229.534 175.401,229.408 175.275 C 229.098 174.965,196.800 207.255,196.800 207.874 C 196.800 208.143,197.486 209.676,198.325 211.281 C 199.163 212.886,200.168 215.280,200.557 216.600 C 200.947 217.920,201.430 219.522,201.633 220.160 C 202.554 223.069,201.870 232.122,200.451 235.800 C 197.749 242.799,190.724 250.554,184.815 253.060 C 156.666 264.998,128.320 233.212,144.096 207.400 C 145.496 205.109,152.547 198.000,153.419 198.000 C 153.739 198.000,154.000 197.852,154.000 197.670 C 154.000 197.306,157.916 195.417,160.044 194.754 C 168.011 192.275,176.318 192.947,183.257 196.633 C 183.839 196.942,185.061 197.593,185.974 198.080 L 187.633 198.966 216.516 170.083 C 232.402 154.197,245.486 141.200,245.593 141.200 C 245.699 141.200,247.634 143.042,249.893 145.293 M338.909 194.400 C 338.909 195.390,338.987 195.795,339.082 195.300 C 339.178 194.805,339.178 193.995,339.082 193.500 C 338.987 193.005,338.909 193.410,338.909 194.400 M165.800 205.758 C 159.875 207.082,154.951 211.381,152.700 217.193 C 151.886 219.296,151.719 226.448,152.441 228.281 C 158.550 243.790,174.982 248.496,185.445 237.732 C 197.522 225.307,183.131 201.883,165.800 205.758 M174.580 206.844 C 174.789 207.040,175.281 207.200,175.674 207.200 C 176.369 207.200,179.867 209.175,181.328 210.393 C 182.616 211.466,184.800 213.632,184.800 213.836 C 184.800 213.945,185.025 214.302,185.300 214.631 C 185.575 214.959,185.981 215.447,186.201 215.714 C 188.937 219.029,190.504 230.369,188.451 232.000 C 188.313 232.110,187.801 233.010,187.314 234.000 C 186.167 236.331,181.880 240.800,180.792 240.800 C 180.570 240.800,180.077 240.968,179.695 241.174 C 177.080 242.583,176.100 242.800,172.352 242.800 C 169.615 242.800,167.969 242.603,166.914 242.150 C 164.340 241.043,161.492 239.550,160.978 239.036 C 160.709 238.766,159.973 238.108,159.344 237.573 C 156.601 235.240,153.200 230.033,153.200 228.164 C 153.200 227.660,153.020 227.136,152.800 227.000 C 152.579 226.864,152.400 225.070,152.400 223.000 C 152.400 220.930,152.579 219.136,152.800 219.000 C 153.020 218.864,153.200 218.402,153.200 217.973 C 153.200 216.668,155.294 213.190,157.253 211.242 C 159.757 208.752,160.073 208.547,164.000 206.853 C 165.939 206.017,173.689 206.010,174.580 206.844 M137.077 328.772 C 137.199 329.239,137.505 329.458,137.850 329.326 C 138.288 329.158,138.314 328.978,137.961 328.553 C 137.301 327.758,136.841 327.872,137.077 328.772" stroke="none" fill="#5a4936" fill-rule="evenodd"/>
    </g>
</svg>