<?xml version="1.0" encoding="UTF-8" standalone="no"?>
<svg
   xmlns:dc="http://purl.org/dc/elements/1.1/"
   xmlns:cc="http://creativecommons.org/ns#"
   xmlns:rdf="http://www.w3.org/1999/02/22-rdf-syntax-ns#"
   xmlns:svg="http://www.w3.org/2000/svg"
   xmlns="http://www.w3.org/2000/svg"
   xmlns:sodipodi="http://sodipodi.sourceforge.net/DTD/sodipodi-0.dtd"
   xmlns:inkscape="http://www.inkscape.org/namespaces/inkscape"
   viewBox="0 0 16 16"
   version="1.1"
   id="svg3745"
   sodipodi:docname="tx-dlf-tableofcontents.svg"
   inkscape:version="0.92.4 (5da689c313, 2019-01-14)">
  <metadata
     id="metadata3751">
    <rdf:RDF>
      <cc:Work
         rdf:about="">
        <dc:format>image/svg+xml</dc:format>
        <dc:type
           rdf:resource="http://purl.org/dc/dcmitype/StillImage" />
        <dc:title></dc:title>
      </cc:Work>
    </rdf:RDF>
  </metadata>
  <defs
     id="defs3749" />
  <sodipodi:namedview
     pagecolor="#ffffff"
     bordercolor="#666666"
     borderopacity="1"
     objecttolerance="10"
     gridtolerance="10"
     guidetolerance="10"
     inkscape:pageopacity="0"
     inkscape:pageshadow="2"
     inkscape:window-width="1920"
     inkscape:window-height="1017"
     id="namedview3747"
     showgrid="true"
     inkscape:zoom="18.782524"
     inkscape:cx="-3.2289484"
     inkscape:cy="7.1132692"
     inkscape:window-x="-8"
     inkscape:window-y="-8"
     inkscape:window-maximized="1"
     inkscape:current-layer="svg3745"
     showguides="true"
     inkscape:guide-bbox="true"
     inkscape:snap-nodes="false"
     inkscape:snap-others="false"
     inkscape:snap-bbox="true"
     inkscape:bbox-paths="true"
     inkscape:bbox-nodes="true" />
  <path
     fill="#FFF"
     d="M1 1h14v14H1V1z"
     id="path3733" />
  <path
     fill="#999"
     d="M1 1v14h14V1H1zm1 1h12v12H2V2z"
     id="path3735" />
  <g
     transform="matrix(0.01953125,0,0,0.02213374,3,2.3337524)"
     id="g898"
     style="fill:#c837ab;fill-opacity:1">
    <g
       id="g896"
       style="fill:#c837ab;fill-opacity:1">
      <path
         d="M 455.633,338.012 V 239.849 H 271 v -65.863 h 56.942 V 30.101 H 184.058 V 173.986 H 241 v 65.863 H 56.367 v 98.164 H 0 V 481.899 H 143.886 V 338.012 H 86.367 V 269.849 H 241 v 68.164 H 184.058 V 481.9 H 327.943 V 338.012 H 271 v -68.163 h 154.633 v 68.164 H 368.114 V 481.9 H 512 V 338.012 Z m -341.747,30 v 83.886 H 30 v -83.886 z m 184.056,0 v 83.886 H 214.057 V 368.012 Z M 214.058,143.986 V 60.101 h 83.885 v 83.885 z M 482,451.898 H 398.114 V 368.012 H 482 Z"
         id="path894"
         inkscape:connector-curvature="0"
         style="fill:#c837ab;fill-opacity:1" />
    </g>
  </g>
</svg>
