<?xml version="1.0" encoding="UTF-8"?>
<svg version="1.1" viewBox="0 0 16 16" xmlns="http://www.w3.org/2000/svg" xmlns:cc="http://creativecommons.org/ns#" xmlns:dc="http://purl.org/dc/elements/1.1/" xmlns:rdf="http://www.w3.org/1999/02/22-rdf-syntax-ns#">
 <metadata>
  <rdf:RDF>
   <cc:Work rdf:about="">
    <dc:format>image/svg+xml</dc:format>
    <dc:type rdf:resource="http://purl.org/dc/dcmitype/StillImage"/>
   </cc:Work>
  </rdf:RDF>
 </metadata>
 <path d="M1 1h14v14H1V1z" fill="#FFF"/>
 <path d="M1 1v14h14V1H1zm1 1h12v12H2V2z" fill="#999"/>
 <g transform="translate(-.0003769 -.20027)" fill="#c837ab" fill-rule="evenodd">
  <path d="m3.4126 3.1113c-0.25599 0-0.45721 0.20568-0.45721 0.46167v6.127c0 0.2286 0.20122 0.42956 0.45721 0.42956h5.2749v-0.42956h-5.2749v-5.0121h6.3648v2.88l0.46146-0.051189v-3.9437c0-0.25599-0.20098-0.46167-0.46146-0.46167zm0 0.46167h0.6898v0.65769h-0.6898zm1.8049 0h0.68956v0.65769h-0.68956zm1.8366 0h0.69003v0.65769h-0.69003zm1.8049 0h0.68983v0.65769h-0.68983zm-3.3757 2.19c-0.1529-0.0041014-0.26582 0.10822-0.26582 0.30022v2.2616c0 0.26024 0.20073 0.37478 0.42932 0.26024l2.3533-1.1742c0.22836-0.1143 0.22836-0.31526 0-0.42956l-2.3533-1.1742c-0.057153-0.028577-0.11254-0.042876-0.16351-0.044229zm4.7555 2.3446-0.46146 0.051189v0.49002l0.46146-0.052885zm0 1.0795-0.36238 0.041535v0.89076c0.21061-0.043231 0.36238-0.22078 0.36238-0.41937zm-0.96404 0.51291v0.42956h0.014411v-0.42956z"/>
  <path d="m11.321 12c0-0.50947 0.41696-0.92643 0.92624-0.92643h0.13657c0.04785 0.02211 0.09231 0 0.14019-0.02211 0.04806-0.04807 0.07018-0.09232 0.07018-0.1402v-2.0816c0-0.047908-0.02211-0.11445-0.07018-0.13657-0.02195-0.047853-0.07-0.047853-0.14019-0.047853l-2.6387 0.30252c-0.092314 0-0.16232 0.08869-0.16232 0.18082v3.3105 0.02211c0 0.48715-0.43928 0.90411-0.92643 0.90411-0.53141 0-0.94836-0.4427-0.94836-0.94836 0-0.50947 0.41696-0.92643 0.94836-0.92643h0.14019c0.044228 0 0.092313 0 0.13657-0.04791 0.022114-0.02211 0.048064-0.07019 0.048064-0.11444v-3.3769l4.1925-0.46503v4.5579c0 0.48716-0.41715 0.90412-0.92643 0.90412-0.50928 0-0.92624-0.41696-0.92624-0.94836" style="mix-blend-mode:normal;paint-order:stroke fill markers"/>
 </g>
</svg>
