<?xml version="1.0" encoding="UTF-8" standalone="no"?>
<svg
   xmlns:dc="http://purl.org/dc/elements/1.1/"
   xmlns:cc="http://creativecommons.org/ns#"
   xmlns:rdf="http://www.w3.org/1999/02/22-rdf-syntax-ns#"
   xmlns:svg="http://www.w3.org/2000/svg"
   xmlns="http://www.w3.org/2000/svg"
   xmlns:sodipodi="http://sodipodi.sourceforge.net/DTD/sodipodi-0.dtd"
   xmlns:inkscape="http://www.inkscape.org/namespaces/inkscape"
   viewBox="0 0 16 16"
   version="1.1"
   id="svg3745"
   sodipodi:docname="tx-dlf-tableofcontents.svg"
   inkscape:version="0.92.4 (5da689c313, 2019-01-14)">
  <metadata
     id="metadata3751">
    <rdf:RDF>
      <cc:Work
         rdf:about="">
        <dc:format>image/svg+xml</dc:format>
        <dc:type
           rdf:resource="http://purl.org/dc/dcmitype/StillImage" />
        <dc:title></dc:title>
      </cc:Work>
    </rdf:RDF>
  </metadata>
  <defs
     id="defs3749" />
  <sodipodi:namedview
     pagecolor="#ffffff"
     bordercolor="#666666"
     borderopacity="1"
     objecttolerance="10"
     gridtolerance="10"
     guidetolerance="10"
     inkscape:pageopacity="0"
     inkscape:pageshadow="2"
     inkscape:window-width="1920"
     inkscape:window-height="1017"
     id="namedview3747"
     showgrid="false"
     inkscape:zoom="37.565048"
     inkscape:cx="5.9209062"
     inkscape:cy="8.2571508"
     inkscape:window-x="-8"
     inkscape:window-y="-8"
     inkscape:window-maximized="1"
     inkscape:current-layer="svg3745"
     showguides="true"
     inkscape:guide-bbox="true">
    <sodipodi:guide
       position="-3.4823529,12.894118"
       orientation="0,1"
       id="guide5077"
       inkscape:locked="false" />
    <sodipodi:guide
       position="-1.0729412,3.0682353"
       orientation="0,1"
       id="guide5079"
       inkscape:locked="false" />
    <sodipodi:guide
       position="3.0682353,13.647059"
       orientation="1,0"
       id="guide5081"
       inkscape:locked="false" />
    <sodipodi:guide
       position="12.988235,13.308235"
       orientation="1,0"
       id="guide5083"
       inkscape:locked="false" />
  </sodipodi:namedview>
  <path
     fill="#FFF"
     d="M1 1h14v14H1V1z"
     id="path3733" />
  <path
     fill="#999"
     d="M1 1v14h14V1H1zm1 1h12v12H2V2z"
     id="path3735" />
  <g
     id="g7180"
     transform="matrix(0.40539776,0,0,0.40539776,3.1835338,3.2022185)"
     style="fill:#c837ab;fill-opacity:1">
    <path
       id="path7152"
       d="M 14.5,24 H 3.5 C 2.122,24 1,22.879 1,21.5 V 2.5 C 1,1.121 2.122,0 3.5,0 h 11 C 15.878,0 17,1.121 17,2.5 17,2.776 16.776,3 16.5,3 16.224,3 16,2.776 16,2.5 16,1.673 15.327,1 14.5,1 H 3.5 C 2.673,1 2,1.673 2,2.5 v 19 C 2,22.327 2.673,23 3.5,23 h 11 c 0.827,0 1.5,-0.673 1.5,-1.5 v -2 c 0,-0.276 0.224,-0.5 0.5,-0.5 0.276,0 0.5,0.224 0.5,0.5 v 2 c 0,1.379 -1.122,2.5 -2.5,2.5 z"
       inkscape:connector-curvature="0"
       style="fill:#c837ab;fill-opacity:1" />
    <path
       id="path7154"
       d="M 11,3 H 7 C 6.173,3 5.5,2.327 5.5,1.5 5.5,1.225 5.276,1 5,1 H 4 C 3.724,1 3.5,0.776 3.5,0.5 3.5,0.224 3.724,0 4,0 H 5 C 5.827,0 6.5,0.673 6.5,1.5 6.5,1.775 6.724,2 7,2 h 4 C 11.276,2 11.5,1.775 11.5,1.5 11.5,0.673 12.173,0 13,0 h 1 c 0.276,0 0.5,0.224 0.5,0.5 C 14.5,0.776 14.276,1 14,1 H 13 C 12.724,1 12.5,1.225 12.5,1.5 12.5,2.327 11.827,3 11,3 Z"
       inkscape:connector-curvature="0"
       style="fill:#c837ab;fill-opacity:1" />
    <path
       id="path7156"
       d="m 21.5,17 h -7 C 13.673,17 13,16.327 13,15.5 v -8 C 13,6.673 13.673,6 14.5,6 h 7 C 22.327,6 23,6.673 23,7.5 v 8 C 23,16.327 22.327,17 21.5,17 Z M 14.5,7 C 14.224,7 14,7.225 14,7.5 v 8 c 0,0.275 0.224,0.5 0.5,0.5 h 7 c 0.276,0 0.5,-0.225 0.5,-0.5 v -8 C 22,7.225 21.776,7 21.5,7 Z"
       inkscape:connector-curvature="0"
       style="fill:#c837ab;fill-opacity:1" />
    <path
       id="path7158"
       d="m 19.5,14 h -3 C 16.224,14 16,13.776 16,13.5 16,13.224 16.224,13 16.5,13 h 3 c 0.276,0 0.5,0.224 0.5,0.5 0,0.276 -0.224,0.5 -0.5,0.5 z"
       inkscape:connector-curvature="0"
       style="fill:#c837ab;fill-opacity:1" />
    <path
       id="path7160"
       d="m 19.5,11 h -3 C 16.224,11 16,10.776 16,10.5 16,10.224 16.224,10 16.5,10 h 3 c 0.276,0 0.5,0.224 0.5,0.5 0,0.276 -0.224,0.5 -0.5,0.5 z"
       inkscape:connector-curvature="0"
       style="fill:#c837ab;fill-opacity:1" />
    <path
       id="path7162"
       d="M 19.5,8 C 19.224,8 19,7.776 19,7.5 v -2 C 19,5.224 19.224,5 19.5,5 19.776,5 20,5.224 20,5.5 v 2 C 20,7.776 19.776,8 19.5,8 Z"
       inkscape:connector-curvature="0"
       style="fill:#c837ab;fill-opacity:1" />
    <path
       id="path7164"
       d="M 16.5,8 C 16.224,8 16,7.776 16,7.5 v -2 C 16,5.224 16.224,5 16.5,5 16.776,5 17,5.224 17,5.5 v 2 C 17,7.776 16.776,8 16.5,8 Z"
       inkscape:connector-curvature="0"
       style="fill:#c837ab;fill-opacity:1" />
  </g>
</svg>
