<?xml version="1.0" encoding="UTF-8" standalone="no"?>
<svg
   xmlns:dc="http://purl.org/dc/elements/1.1/"
   xmlns:cc="http://creativecommons.org/ns#"
   xmlns:rdf="http://www.w3.org/1999/02/22-rdf-syntax-ns#"
   xmlns:svg="http://www.w3.org/2000/svg"
   xmlns="http://www.w3.org/2000/svg"
   xmlns:sodipodi="http://sodipodi.sourceforge.net/DTD/sodipodi-0.dtd"
   xmlns:inkscape="http://www.inkscape.org/namespaces/inkscape"
   viewBox="0 0 16 16"
   version="1.1"
   id="svg3745"
   sodipodi:docname="tx-dlf-pagepreview.svg"
   inkscape:version="0.92.4 (5da689c313, 2019-01-14)">
  <metadata
     id="metadata3751">
    <rdf:RDF>
      <cc:Work
         rdf:about="">
        <dc:format>image/svg+xml</dc:format>
        <dc:type
           rdf:resource="http://purl.org/dc/dcmitype/StillImage" />
        <dc:title></dc:title>
      </cc:Work>
    </rdf:RDF>
  </metadata>
  <defs
     id="defs3749" />
  <sodipodi:namedview
     pagecolor="#ffffff"
     bordercolor="#666666"
     borderopacity="1"
     objecttolerance="10"
     gridtolerance="10"
     guidetolerance="10"
     inkscape:pageopacity="0"
     inkscape:pageshadow="2"
     inkscape:window-width="1920"
     inkscape:window-height="1017"
     id="namedview3747"
     showgrid="false"
     inkscape:zoom="53.125"
     inkscape:cx="8.9174406"
     inkscape:cy="8.2435657"
     inkscape:window-x="-8"
     inkscape:window-y="-8"
     inkscape:window-maximized="1"
     inkscape:current-layer="svg3745"
     showguides="true"
     inkscape:guide-bbox="true">
    <sodipodi:guide
       position="-3.4823529,12.894118"
       orientation="0,1"
       id="guide5077"
       inkscape:locked="false" />
    <sodipodi:guide
       position="-1.0729412,3.0682353"
       orientation="0,1"
       id="guide5079"
       inkscape:locked="false" />
    <sodipodi:guide
       position="3.0682353,13.647059"
       orientation="1,0"
       id="guide5081"
       inkscape:locked="false" />
    <sodipodi:guide
       position="12.988235,13.308235"
       orientation="1,0"
       id="guide5083"
       inkscape:locked="false" />
  </sodipodi:namedview>
  <path
     fill="#FFF"
     d="M1 1h14v14H1V1z"
     id="path3733" />
  <path
     fill="#999"
     d="M1 1v14h14V1H1zm1 1h12v12H2V2z"
     id="path3735" />
  <g
     transform="matrix(0.01919118,0,0,0.01919118,3.0650112,3.105882)"
     id="g5912"
     style="fill:#c837ab;fill-opacity:1">
    <g
       id="g5910"
       style="fill:#c837ab;fill-opacity:1">
      <path
         d="m 431.212,378.94 c 30.82,-41.098 27.558,-99.829 -9.799,-137.186 -8.744,-8.743 -18.661,-15.613 -29.246,-20.622 V 128.787 L 263.382,0 H 0.168 v 512 h 392 V 410.868 c 6.203,-2.935 12.175,-6.512 17.817,-10.729 l 80.518,81.409 21.33,-21.096 z M 272.168,51.213 340.955,120 h -68.787 z m 90,430.787 h -332 V 30 h 212 v 120 h 120 v 62.118 c -31.637,-4.529 -64.959,5.349 -89.246,29.636 -40.939,40.939 -40.939,107.553 0,148.492 24.005,24.005 57.199,34.223 89.246,29.636 z m 38.034,-112.967 c -29.243,29.241 -76.824,29.241 -106.066,0 -29.242,-29.243 -29.242,-76.824 0,-106.066 29.242,-29.242 76.822,-29.244 106.066,0 29.242,29.242 29.242,76.824 0,106.066 z"
         id="path5908"
         inkscape:connector-curvature="0"
         style="fill:#c837ab;fill-opacity:1" />
    </g>
  </g>
</svg>
