<?xml version="1.0" encoding="UTF-8" standalone="no"?>
<svg
   xmlns:dc="http://purl.org/dc/elements/1.1/"
   xmlns:cc="http://creativecommons.org/ns#"
   xmlns:rdf="http://www.w3.org/1999/02/22-rdf-syntax-ns#"
   xmlns:svg="http://www.w3.org/2000/svg"
   xmlns="http://www.w3.org/2000/svg"
   xmlns:sodipodi="http://sodipodi.sourceforge.net/DTD/sodipodi-0.dtd"
   xmlns:inkscape="http://www.inkscape.org/namespaces/inkscape"
   viewBox="0 0 16 16"
   version="1.1"
   id="svg3745"
   sodipodi:docname="tx-dlf-toolbox.svg"
   inkscape:version="0.92.4 (5da689c313, 2019-01-14)">
  <metadata
     id="metadata3751">
    <rdf:RDF>
      <cc:Work
         rdf:about="">
        <dc:format>image/svg+xml</dc:format>
        <dc:type
           rdf:resource="http://purl.org/dc/dcmitype/StillImage" />
        <dc:title></dc:title>
      </cc:Work>
    </rdf:RDF>
  </metadata>
  <defs
     id="defs3749" />
  <sodipodi:namedview
     pagecolor="#ffffff"
     bordercolor="#666666"
     borderopacity="1"
     objecttolerance="10"
     gridtolerance="10"
     guidetolerance="10"
     inkscape:pageopacity="0"
     inkscape:pageshadow="2"
     inkscape:window-width="1920"
     inkscape:window-height="1017"
     id="namedview3747"
     showgrid="false"
     inkscape:zoom="18.782524"
     inkscape:cx="12.707084"
     inkscape:cy="6.5224385"
     inkscape:window-x="-8"
     inkscape:window-y="-8"
     inkscape:window-maximized="1"
     inkscape:current-layer="svg3745"
     showguides="true"
     inkscape:guide-bbox="true">
    <sodipodi:guide
       position="-3.4823529,12.894118"
       orientation="0,1"
       id="guide5077"
       inkscape:locked="false" />
    <sodipodi:guide
       position="-1.0729412,3.0682353"
       orientation="0,1"
       id="guide5079"
       inkscape:locked="false" />
    <sodipodi:guide
       position="3.0682353,13.647059"
       orientation="1,0"
       id="guide5081"
       inkscape:locked="false" />
    <sodipodi:guide
       position="12.988235,13.308235"
       orientation="1,0"
       id="guide5083"
       inkscape:locked="false" />
  </sodipodi:namedview>
  <path
     fill="#FFF"
     d="M1 1h14v14H1V1z"
     id="path3733" />
  <path
     fill="#999"
     d="M1 1v14h14V1H1zm1 1h12v12H2V2z"
     id="path3735" />
  <path
     d="m 11.351462,5.4664661 c 0.13737,0.1373726 0.306577,0.074815 0.368604,0.030519 l 1.072588,-0.7661468 c 0.07519,-0.053697 0.119825,-0.1404034 0.119825,-0.2328182 V 3.4254318 c 0,-0.1580105 -0.128101,-0.286111 -0.286112,-0.286111 h -1.072588 c -0.09241,0 -0.179123,0.044613 -0.232816,0.1198051 l -0.766145,1.0725893 c -0.08129,0.1138138 -0.0684,0.2697233 0.03052,0.3686037 L 10.766107,4.8810841 8.4892159,7.157968 7.7024135,6.3714875 V 5.1109433 c 0,-1.0871601 -0.8844623,-1.9716225 -1.9716224,-1.9716225 H 4.6582018 c -0.1157235,0 -0.2200567,0.069714 -0.2643284,0.1766273 -0.044287,0.1068906 -0.019806,0.2299741 0.062031,0.3118002 L 5.375425,4.547269 c 0.2262387,0.2262566 0.2262199,0.59469 0,0.8208878 -0.2261979,0.2262191 -0.5946313,0.2262379 -0.8208879,0 L 3.634999,4.4486363 C 3.553172,4.3667913 3.4300885,4.3423185 3.3231955,4.3866049 3.2163049,4.4308758 3.1465893,4.5352106 3.1465893,4.6509341 v 1.0725884 c 0,1.0871602 0.8844631,1.9716232 1.9716233,1.9716232 H 6.3787568 L 6.579857,7.8962427 4.6142779,9.4687045 c -5.85e-5,5.96e-5 -1.327e-4,9.61e-5 -1.914e-4,1.525e-4 l -1.3601357,1.0881 c -0.063555,0.05082 -0.1024461,0.126326 -0.1069273,0.207581 -0.00448,0.08126 0.025809,0.160585 0.083371,0.218132 l 1.8387373,1.838734 c 0.053787,0.0538 0.1266308,0.08381 0.2022791,0.08381 0.00529,0 0.010559,-1.51e-4 0.015846,-3.09e-4 0.081259,-0.0045 0.1567519,-0.04339 0.2075811,-0.106927 l 1.0881166,-1.360131 c 3.75e-5,-3.7e-5 7.74e-5,-9.6e-5 1.149e-4,-1.33e-4 L 8.1555502,9.4721026 8.3566471,9.6731999 v 1.2605441 c 0,1.087142 0.8844632,1.971605 1.9716229,1.971605 h 1.072588 c 0.115723,0 0.220057,-0.06972 0.264329,-0.176625 0.04429,-0.106889 0.0198,-0.229977 -0.06203,-0.311803 L 10.683637,11.4974 c -0.226238,-0.226256 -0.226219,-0.59469 0,-0.820888 0.226198,-0.226219 0.594631,-0.226237 0.820887,0 l 0.919521,0.919522 c 0.08183,0.08184 0.204913,0.106317 0.311804,0.06203 0.106908,-0.04429 0.176624,-0.148624 0.176624,-0.264329 v -1.072589 c 0,-1.0871605 -0.884463,-1.9716228 -1.971623,-1.9716228 H 9.6803043 L 8.893805,7.5627177 11.170688,5.2858524 Z M 6.3373235,10.828743 5.2230574,9.7144773 8.0083006,7.4862913 8.5655315,8.0435001 Z M 6.6995578,7.2067223 C 6.6459016,7.1530659 6.5731349,7.1229302 6.4972601,7.1229302 H 5.1182069 c -0.7716399,0 -1.3994036,-0.6277637 -1.3994036,-1.3994029 V 5.3416643 L 4.1499151,5.7727574 C 4.6089303,6.2317913 5.3395052,6.2136919 5.7801147,5.7728348 6.2267318,5.3262144 6.2333896,4.5959865 5.7800373,4.1426343 L 5.3489264,3.7115421 h 0.381863 c 0.7716392,0 1.3994028,0.6277636 1.3994028,1.3994027 v 1.3790533 c 0,0.075873 0.030144,0.1486423 0.083792,0.2022978 l 0.3870315,0.3870314 -0.5715916,0.45728 z m -1.4518581,4.9840397 -1.38666,-1.38666 0.9124448,-0.729963 1.2041808,1.20418 z M 9.5618059,8.9216085 h 1.3790491 c 0.771641,0 1.399404,0.6277637 1.399404,1.3994045 v 0.381861 l -0.43111,-0.431092 c -0.459016,-0.4590337 -1.189592,-0.4409342 -1.630201,-7.4e-5 -0.4466171,0.446617 -0.4532748,1.176845 7.7e-5,1.630198 l 0.431111,0.431092 h -0.381863 c -0.7716388,0 -1.3994024,-0.627764 -1.3994024,-1.399403 V 9.5545434 c 0,-0.075878 -0.030144,-0.148644 -0.083792,-0.2023003 L 8.5152123,9.0223775 8.9724955,8.450785 9.3595237,8.8378164 c 0.053639,0.053656 0.1264042,0.083792 0.2022822,0.083792 z M 11.700994,3.7115421 h 0.639265 v 0.639246 L 11.584698,4.8904694 11.161331,4.4671023 Z"
     id="path7227"
     inkscape:connector-curvature="0"
     style="stroke-width:0.01907401;fill:#c837ab;fill-opacity:1" />
</svg>
