<?xml version="1.0" encoding="UTF-8" standalone="no"?>
<svg
   xmlns:dc="http://purl.org/dc/elements/1.1/"
   xmlns:cc="http://creativecommons.org/ns#"
   xmlns:rdf="http://www.w3.org/1999/02/22-rdf-syntax-ns#"
   xmlns:svg="http://www.w3.org/2000/svg"
   xmlns="http://www.w3.org/2000/svg"
   xmlns:sodipodi="http://sodipodi.sourceforge.net/DTD/sodipodi-0.dtd"
   xmlns:inkscape="http://www.inkscape.org/namespaces/inkscape"
   viewBox="0 0 16 16"
   version="1.1"
   id="svg3745"
   sodipodi:docname="tx-dlf-basket.svg"
   inkscape:version="0.92.4 (5da689c313, 2019-01-14)">
  <metadata
     id="metadata3751">
    <rdf:RDF>
      <cc:Work
         rdf:about="">
        <dc:format>image/svg+xml</dc:format>
        <dc:type
           rdf:resource="http://purl.org/dc/dcmitype/StillImage" />
        <dc:title />
      </cc:Work>
    </rdf:RDF>
  </metadata>
  <defs
     id="defs3749" />
  <sodipodi:namedview
     pagecolor="#ffffff"
     bordercolor="#666666"
     borderopacity="1"
     objecttolerance="10"
     gridtolerance="10"
     guidetolerance="10"
     inkscape:pageopacity="0"
     inkscape:pageshadow="2"
     inkscape:window-width="1920"
     inkscape:window-height="1017"
     id="namedview3747"
     showgrid="false"
     inkscape:zoom="32"
     inkscape:cx="10.148615"
     inkscape:cy="9.0737572"
     inkscape:window-x="-8"
     inkscape:window-y="-8"
     inkscape:window-maximized="1"
     inkscape:current-layer="svg3745"
     showguides="true"
     inkscape:guide-bbox="true" />
  <path
     fill="#FFF"
     d="M1 1h14v14H1V1z"
     id="path3733" />
  <path
     fill="#999"
     d="M1 1v14h14V1H1zm1 1h12v12H2V2z"
     id="path3735" />
  <path
     style="fill:#c837ab;fill-opacity:1;stroke-width:0.01826445"
     inkscape:connector-curvature="0"
     id="path157"
     d="m 11.876071,5.7808225 0.0039,6.4395125 c 1.23e-4,0.201749 -0.16354,0.365289 -0.365289,0.365289 -0.201749,0 -0.365159,-0.16354 -0.365289,-0.365289 l -0.0039,-6.0742235 h -0.730578 v 1.095867 c 0,0.2017491 -0.16354,0.365289 -0.365289,0.365289 -0.2017489,0 -0.3652888,-0.1635399 -0.3652888,-0.365289 V 6.1461115 H 6.1775628 v 1.095867 c 0,0.2017491 -0.1635399,0.365289 -0.365289,0.365289 -0.2017491,0 -0.365289,-0.1635399 -0.365289,-0.365289 V 6.1461115 H 4.7164068 V 11.84462 l 6.7870072,0.0054 c 0.201749,1.59e-4 0.365289,0.16354 0.365289,0.365289 0,0.201749 -0.16354,0.36544 -0.365289,0.365289 l -7.1522962,-0.0054 c -0.201749,-1.51e-4 -0.365289,-0.16354 -0.365289,-0.365289 V 5.7808225 c 0,-0.2017491 0.1635399,-0.365289 0.365289,-0.365289 H 5.464263 c 0.145111,-1.2324303 1.1959014,-2.191734 2.466687,-2.191734 1.2707856,0 2.321576,0.9593037 2.466687,2.191734 h 1.113145 c 0.201749,0 0.365167,0.1635399 0.365289,0.365289 z M 9.6598446,5.4155335 C 9.5203042,4.587332 8.7982009,3.9543775 7.93095,3.9543775 c -0.8672509,0 -1.5893542,0.6329545 -1.7288946,1.461156 z"
     sodipodi:nodetypes="ssssccsssccssscccssssssscscsscscc" />
</svg>
