<?xml version="1.0" encoding="UTF-8" standalone="no"?>
<svg
   xmlns:dc="http://purl.org/dc/elements/1.1/"
   xmlns:cc="http://creativecommons.org/ns#"
   xmlns:rdf="http://www.w3.org/1999/02/22-rdf-syntax-ns#"
   xmlns:svg="http://www.w3.org/2000/svg"
   xmlns="http://www.w3.org/2000/svg"
   xmlns:sodipodi="http://sodipodi.sourceforge.net/DTD/sodipodi-0.dtd"
   xmlns:inkscape="http://www.inkscape.org/namespaces/inkscape"
   viewBox="0 0 16 16"
   version="1.1"
   id="svg3745"
   sodipodi:docname="tx-dlf-basket.svg"
   inkscape:version="0.92.4 (5da689c313, 2019-01-14)">
  <metadata
     id="metadata3751">
    <rdf:RDF>
      <cc:Work
         rdf:about="">
        <dc:format>image/svg+xml</dc:format>
        <dc:type
           rdf:resource="http://purl.org/dc/dcmitype/StillImage" />
        <dc:title></dc:title>
      </cc:Work>
    </rdf:RDF>
  </metadata>
  <defs
     id="defs3749" />
  <sodipodi:namedview
     pagecolor="#ffffff"
     bordercolor="#666666"
     borderopacity="1"
     objecttolerance="10"
     gridtolerance="10"
     guidetolerance="10"
     inkscape:pageopacity="0"
     inkscape:pageshadow="2"
     inkscape:window-width="1920"
     inkscape:window-height="1017"
     id="namedview3747"
     showgrid="false"
     inkscape:zoom="26.5625"
     inkscape:cx="1.1985291"
     inkscape:cy="14.453941"
     inkscape:window-x="-8"
     inkscape:window-y="-8"
     inkscape:window-maximized="1"
     inkscape:current-layer="svg3745" />
  <path
     fill="#FFF"
     d="M1 1h14v14H1V1z"
     id="path3733" />
  <path
     fill="#999"
     d="M1 1v14h14V1H1zm1 1h12v12H2V2z"
     id="path3735" />
  <rect
     style="fill:#c837ab;stroke:none;stroke-width:0.53291339;stroke-miterlimit:4;stroke-dasharray:none;stroke-opacity:1"
     id="rect3773"
     width="2.9741178"
     height="3.2"
     x="18.672941"
     y="-3.9905882" />
  <g
     id="g159"
     transform="matrix(0.01826445,0,0,0.01826445,3.2552508,3.2237995)"
     style="fill:#c837ab;fill-opacity:1">
    <path
       d="m 472,452 c 0,11.046 -8.954,20 -20,20 h -20 v 20 c 0,11.046 -8.954,20 -20,20 -11.046,0 -20,-8.954 -20,-20 v -20 h -20 c -11.046,0 -20,-8.954 -20,-20 0,-11.046 8.954,-20 20,-20 h 20 v -20 c 0,-11.046 8.954,-20 20,-20 11.046,0 20,8.954 20,20 v 20 h 20 c 11.046,0 20,8.954 20,20 z m 0,-312 v 192 c 0,11.046 -8.954,20 -20,20 -11.046,0 -20,-8.954 -20,-20 V 160 h -40 v 60 c 0,11.046 -8.954,20 -20,20 -11.046,0 -20,-8.954 -20,-20 V 160 H 160 v 60 c 0,11.046 -8.954,20 -20,20 -11.046,0 -20,-8.954 -20,-20 V 160 H 80 v 312 h 212 c 11.046,0 20,8.954 20,20 0,11.046 -8.954,20 -20,20 H 60 C 48.954,512 40,503.046 40,492 V 140 c 0,-11.046 8.954,-20 20,-20 h 60.946 C 128.891,52.523 186.423,0 256,0 325.577,0 383.109,52.523 391.054,120 H 452 c 11.046,0 20,8.954 20,20 z M 350.659,120 C 343.019,74.655 303.483,40 256,40 c -47.483,0 -87.019,34.655 -94.659,80 z"
       id="path157"
       inkscape:connector-curvature="0"
       style="fill:#c837ab;fill-opacity:1" />
  </g>
</svg>
