<?xml version="1.0" encoding="UTF-8" standalone="no"?>
<svg
   xmlns:dc="http://purl.org/dc/elements/1.1/"
   xmlns:cc="http://creativecommons.org/ns#"
   xmlns:rdf="http://www.w3.org/1999/02/22-rdf-syntax-ns#"
   xmlns:svg="http://www.w3.org/2000/svg"
   xmlns="http://www.w3.org/2000/svg"
   xmlns:sodipodi="http://sodipodi.sourceforge.net/DTD/sodipodi-0.dtd"
   xmlns:inkscape="http://www.inkscape.org/namespaces/inkscape"
   viewBox="0 0 16 16"
   version="1.1"
   id="svg3745"
   sodipodi:docname="tx-dlf-oaipmh.svg"
   inkscape:version="0.92.4 (5da689c313, 2019-01-14)">
  <metadata
     id="metadata3751">
    <rdf:RDF>
      <cc:Work
         rdf:about="">
        <dc:format>image/svg+xml</dc:format>
        <dc:type
           rdf:resource="http://purl.org/dc/dcmitype/StillImage" />
        <dc:title></dc:title>
      </cc:Work>
    </rdf:RDF>
  </metadata>
  <defs
     id="defs3749" />
  <sodipodi:namedview
     pagecolor="#ffffff"
     bordercolor="#666666"
     borderopacity="1"
     objecttolerance="10"
     gridtolerance="10"
     guidetolerance="10"
     inkscape:pageopacity="0"
     inkscape:pageshadow="2"
     inkscape:window-width="1920"
     inkscape:window-height="1017"
     id="namedview3747"
     showgrid="true"
     inkscape:zoom="37.565048"
     inkscape:cx="1.013086"
     inkscape:cy="5.7589433"
     inkscape:window-x="-8"
     inkscape:window-y="-8"
     inkscape:window-maximized="1"
     inkscape:current-layer="svg3745"
     showguides="true"
     inkscape:guide-bbox="true"
     inkscape:snap-bbox="true"
     inkscape:bbox-nodes="true"
     inkscape:snap-nodes="false"
     inkscape:snap-others="false">
    <sodipodi:guide
       position="-3.4823529,12.894118"
       orientation="0,1"
       id="guide5077"
       inkscape:locked="false" />
    <sodipodi:guide
       position="-1.0729412,3.0682353"
       orientation="0,1"
       id="guide5079"
       inkscape:locked="false" />
    <sodipodi:guide
       position="3.0682353,13.647059"
       orientation="1,0"
       id="guide5081"
       inkscape:locked="false" />
    <sodipodi:guide
       position="12.988235,13.308235"
       orientation="1,0"
       id="guide5083"
       inkscape:locked="false" />
    <inkscape:grid
       type="xygrid"
       id="grid885" />
  </sodipodi:namedview>
  <path
     fill="#FFF"
     d="M1 1h14v14H1V1z"
     id="path3733" />
  <path
     fill="#999"
     d="M1 1v14h14V1H1zm1 1h12v12H2V2z"
     id="path3735" />
  <g
     aria-label="OAI PMH"
     transform="matrix(0.07245956,0,0,0.07245956,-15.393393,-23.137925)"
     style="font-style:normal;font-weight:normal;font-size:40px;line-height:1.25;font-family:sans-serif;letter-spacing:0px;word-spacing:0px;fill:#c837ab;fill-opacity:1;stroke:none"
     id="flowRoot5761">
    <path
       d="m 273.05078,419.11914 v -5 h -5 v -25 h 5 v -5 h 20 v 5 h 5 v 25 h -5 v 5 z m 5,-5 h 10 v -25 h -10 z"
       style="font-style:normal;font-variant:normal;font-weight:normal;font-stretch:normal;font-family:'C64 Pro Mono';-inkscape-font-specification:'C64 Pro Mono';fill:#c837ab;fill-opacity:1"
       id="path5775"
       inkscape:connector-curvature="0" />
    <path
       d="m 308.05078,419.11914 v -25 h 5 v -5 h 5 v -5 h 10 v 5 h 5 v 5 h 5 v 25 h -10 v -15 h -10 v 15 z m 10,-20 h 10 v -5 h -10 z"
       style="font-style:normal;font-variant:normal;font-weight:normal;font-stretch:normal;font-family:'C64 Pro Mono';-inkscape-font-specification:'C64 Pro Mono';fill:#c837ab;fill-opacity:1"
       id="path5777"
       inkscape:connector-curvature="0" />
    <path
       d="m 373.05078,384.11914 v 5 h -5 v 25 h 5 v 5 h -20 v -5 h 5 v -25 h -5 v -5 z"
       style="font-style:normal;font-variant:normal;font-weight:normal;font-stretch:normal;font-family:'C64 Pro Mono';-inkscape-font-specification:'C64 Pro Mono';fill:#c837ab;fill-opacity:1"
       id="path5779"
       inkscape:connector-curvature="0" />
    <path
       d="m 268.05078,473.72852 v -35 h 25 v 5 h 5 v 10 h -5 v 5 h -15 v 15 z m 10,-20 h 10 v -10 h -10 z"
       style="font-style:normal;font-variant:normal;font-weight:normal;font-stretch:normal;font-family:'C64 Pro Mono';-inkscape-font-specification:'C64 Pro Mono';fill:#c837ab;fill-opacity:1"
       id="path5781"
       inkscape:connector-curvature="0" />
    <path
       d="m 308.05078,473.72852 v -35 h 10 v 5 h 5 v 5 h 5 v -5 h 5 v -5 h 10 v 35 h -10 v -20 h -5 v 5 h -5 v -5 h -5 v 20 z"
       style="font-style:normal;font-variant:normal;font-weight:normal;font-stretch:normal;font-family:'C64 Pro Mono';-inkscape-font-specification:'C64 Pro Mono';fill:#c837ab;fill-opacity:1"
       id="path5783"
       inkscape:connector-curvature="0" />
    <path
       d="m 348.05078,473.72852 v -35 h 10 v 15 h 10 v -15 h 10 v 35 h -10 v -15 h -10 v 15 z"
       style="font-style:normal;font-variant:normal;font-weight:normal;font-stretch:normal;font-family:'C64 Pro Mono';-inkscape-font-specification:'C64 Pro Mono';fill:#c837ab;fill-opacity:1"
       id="path5785"
       inkscape:connector-curvature="0" />
  </g>
</svg>
