<?xml version="1.0" encoding="utf-8"?>
<svg viewBox="0 0 16 16" xmlns="http://www.w3.org/2000/svg">
  <path fill="#FFF" d="M1 1h14v14H1V1z" id="path3733"/>
  <path fill="#999" d="M1 1v14h14V1H1zm1 1h12v12H2V2z" id="path3735"/>
  <g style="fill:#c837ab;fill-opacity:1" id="g5910" transform="matrix(0.012277, 0, 0, 0.012277, 5.603003, 4.86945)">
    <path style="fill:#c837ab;fill-opacity:1" id="path5908" d="M 392.167,128.787 263.382,0 H 0.168 v 512 h 392 c -0.7558,-206.79266 2.69044,-200.50878 -0.001,-383.213 z M 272.168,51.213 340.955,120 h -68.787 z m 90,430.787 h -332 V 30 h 212 v 120 h 120 c 0.0455,165.86672 0.3822,211.91958 0,269.882 z"/>
  </g>
  <path style="fill:#c837ab;fill-opacity:1;stroke-width:0.0226498" d="m 4.1787007,9.0322697 c -0.036275,0 -0.072816,-0.012482 -0.102632,-0.037869 L 3.0501036,8.120792 c -0.03539,-0.03017 -0.055739,-0.074231 -0.055739,-0.1207694 0,-0.04645 0.020438,-0.090511 0.055739,-0.1206808 L 4.0760687,7.0057321 c 0.066623,-0.056801 0.1666886,-0.04875 0.2234901,0.017871 0.056713,0.066711 0.04875,0.1667769 -0.01796,0.22349 L 3.3974594,8.0000227 4.281598,8.7529518 c 0.06671,0.056801 0.074674,0.1568675 0.01796,0.2234898 -0.03141,0.036895 -0.076001,0.055828 -0.1208573,0.055828 z m 0,0" id="path7018"/>
  <path style="fill:#c837ab;fill-opacity:1;stroke-width:0.0226498" d="m 11.817362,9.0322695 c -0.04486,0 -0.08945,-0.018937 -0.12077,-0.055828 -0.0568,-0.066622 -0.04875,-0.1666886 0.01787,-0.2234899 l 0.88414,-0.7529289 -0.884138,-0.7529286 c -0.06662,-0.056713 -0.07467,-0.1567793 -0.01787,-0.22349 0.05671,-0.066622 0.156866,-0.074674 0.223401,-0.017871 l 1.025964,0.8736097 c 0.03539,0.03017 0.05574,0.074231 0.05574,0.1206808 0,0.046539 -0.02034,0.0906 -0.05574,0.1207697 l -1.025965,0.8736099 c -0.02981,0.025389 -0.06636,0.037869 -0.102632,0.037869 z m 0,0" id="path7020"/>
  <text style="white-space: pre; fill: #c837ab; font-family: Arial, sans-serif; font-size: 0.5px;" x="8.531" y="9.034" transform="matrix(4.96357, 0, 0, 5.160046, -35.955242, -36.793797)">3D</text>
</svg>